<?xml version="1.0" encoding="utf-8"?>
<!-- Generator: Adobe Illustrator 17.0.0, SVG Export Plug-In . SVG Version: 6.00 Build 0)  -->
<!DOCTYPE svg PUBLIC "-//W3C//DTD SVG 1.1//EN" "http://www.w3.org/Graphics/SVG/1.1/DTD/svg11.dtd">
<svg version="1.1" id="Layer_1" xmlns="http://www.w3.org/2000/svg" xmlns:xlink="http://www.w3.org/1999/xlink" x="0px" y="0px"
	 width="43.638px" height="434.726px" viewBox="0 0 43.638 434.726" enable-background="new 0 0 43.638 434.726"
	 xml:space="preserve">
<g>
	<g>
		<defs>
			<path id="SVGID_1_" d="M29.83,6.523l5.869-5.864c1.158-1.157,3.44-0.752,5.091,0.91l0.284,0.286
				c1.65,1.662,2.045,3.952,0.888,5.108l-5.87,5.864c-0.289-0.449-0.58-0.865-0.874-1.258c0.455-1.197,0.265-2.52-0.596-3.387
				c-0.852-0.858-2.147-1.056-3.332-0.623C30.418,6.875,29.83,6.523,29.83,6.523z M11.743,24.589l15.698-15.68
				c0.487,0.375,0.956,0.763,1.402,1.153c-0.389,1.158-0.188,2.405,0.64,3.239c0.822,0.827,2.065,1.051,3.214,0.678
				c0.634,0.743,1.006,1.235,1.006,1.235l-15.698,15.68l-0.001,0.001l-9.769,9.758L8.23,40.66l-0.821,0.82
				c-0.234,0.233-0.693,0.15-1.026-0.185l-5.056-5.091c-0.332-0.335-0.413-0.796-0.18-1.03l0.821-0.82l0.007-0.006L11.743,24.589
				L11.743,24.589z"/>
		</defs>
		<clipPath id="SVGID_2_">
			<use xlink:href="#SVGID_1_"  overflow="visible"/>
		</clipPath>
		<g clip-path="url(#SVGID_2_)">
			<g>
				<defs>
					<rect id="SVGID_3_" x="-299.184" y="-671.73" width="1114.596" height="1982.495"/>
				</defs>
				<clipPath id="SVGID_4_">
					<use xlink:href="#SVGID_3_"  overflow="visible"/>
				</clipPath>
				<rect x="-13.848" y="-14.861" clip-path="url(#SVGID_4_)" fill="#DBA7A6" width="71.334" height="71.334"/>
			</g>
		</g>
		<g clip-path="url(#SVGID_2_)">
			<g>
				<g>
					<defs>
						<polygon id="SVGID_5_" points="21.819,114.266 8.334,121.355 10.909,106.34 0,95.706 15.077,93.515 21.819,79.853 
							28.561,93.515 43.638,95.706 32.728,106.34 35.303,121.355 						"/>
					</defs>
					<clipPath id="SVGID_6_">
						<use xlink:href="#SVGID_5_"  overflow="visible"/>
					</clipPath>
					<g clip-path="url(#SVGID_6_)">
						<g>
							<g>
								<defs>
									<rect id="SVGID_7_" x="-520.184" y="-479.356" width="788.628" height="1912.783"/>
								</defs>
								<clipPath id="SVGID_8_">
									<use xlink:href="#SVGID_7_"  overflow="visible"/>
								</clipPath>
								<polygon clip-path="url(#SVGID_8_)" fill="#D7A6A4" stroke="#D7A6A4" stroke-miterlimit="10" points="21.819,114.266 
									8.334,121.355 10.909,106.34 0,95.706 15.077,93.515 21.819,79.853 28.561,93.515 43.638,95.706 32.728,106.34 
									35.303,121.355 								"/>
							</g>
						</g>
					</g>
				</g>
			</g>
		</g>
	</g>
</g>
<g>
	<g>
		<defs>
			<rect id="SVGID_9_" x="7.595" y="166.879" width="35.747" height="22.343"/>
		</defs>
		<clipPath id="SVGID_10_">
			<use xlink:href="#SVGID_9_"  overflow="visible"/>
		</clipPath>
		<g clip-path="url(#SVGID_10_)">
			<defs>
				<rect id="SVGID_11_" x="-2982.142" y="-321.641" width="3974.4" height="1932"/>
			</defs>
			<clipPath id="SVGID_12_">
				<use xlink:href="#SVGID_11_"  overflow="visible"/>
			</clipPath>
			<rect x="7.595" y="166.879" opacity="0" clip-path="url(#SVGID_12_)" fill="#D8D8D8" width="35.747" height="22.343"/>
		</g>
	</g>
	<g>
		<defs>
			<rect id="SVGID_13_" x="7.595" y="166.879" width="35.747" height="22.343"/>
		</defs>
		<clipPath id="SVGID_14_">
			<use xlink:href="#SVGID_13_"  overflow="visible"/>
		</clipPath>
		<g clip-path="url(#SVGID_14_)">
			<defs>
				<rect id="SVGID_15_" x="-2982.142" y="-321.641" width="3974.4" height="1932"/>
			</defs>
			<clipPath id="SVGID_16_">
				<use xlink:href="#SVGID_15_"  overflow="visible"/>
			</clipPath>
			
				<rect x="7.595" y="166.879" clip-path="url(#SVGID_16_)" fill="none" stroke="#DBA6A5" stroke-width="5.52" stroke-miterlimit="10" width="35.748" height="22.343"/>
		</g>
	</g>
	<g>
		<defs>
			<path id="SVGID_17_" d="M7.595,187.204h-0.69l-0.414,0.552l-7.667,10.214l-1.659,2.209h2.763h38.361h0.858l0.378-0.768
				l5.056-10.214l0.985-1.992h-2.225H7.595z M7.595,189.964h35.747l-1.236-1.992l-5.053,10.214l1.236-0.768H-0.073l1.101,2.209
				l7.67-10.214L7.595,189.964z M-58.035,132.004h158.802v123.374H-58.035V132.004z"/>
		</defs>
		<clipPath id="SVGID_18_">
			<use xlink:href="#SVGID_17_"  overflow="visible"/>
		</clipPath>
		<g clip-path="url(#SVGID_18_)">
			<defs>
				<polygon id="SVGID_19_" points="7.595,188.584 43.342,188.584 38.289,198.798 -0.073,198.798 				"/>
			</defs>
			<clipPath id="SVGID_20_">
				<use xlink:href="#SVGID_19_"  overflow="visible"/>
			</clipPath>
			<g clip-path="url(#SVGID_20_)">
				<defs>
					<rect id="SVGID_21_" x="-2982.142" y="-321.641" width="3974.4" height="1932"/>
				</defs>
				<clipPath id="SVGID_22_">
					<use xlink:href="#SVGID_21_"  overflow="visible"/>
				</clipPath>
				<polygon opacity="0" clip-path="url(#SVGID_22_)" fill="#D8D8D8" points="7.595,188.584 43.342,188.584 38.289,198.798 
					-0.073,198.798 				"/>
			</g>
		</g>
	</g>
	<g>
		<defs>
			<polygon id="SVGID_23_" points="7.595,188.584 43.342,188.584 38.289,198.798 -0.073,198.798 			"/>
		</defs>
		<clipPath id="SVGID_24_">
			<use xlink:href="#SVGID_23_"  overflow="visible"/>
		</clipPath>
		<g clip-path="url(#SVGID_24_)">
			<defs>
				<rect id="SVGID_25_" x="-2982.142" y="-321.641" width="3974.4" height="1932"/>
			</defs>
			<clipPath id="SVGID_26_">
				<use xlink:href="#SVGID_25_"  overflow="visible"/>
			</clipPath>
			<polygon clip-path="url(#SVGID_26_)" fill="none" stroke="#DBA6A5" stroke-width="5.52" stroke-miterlimit="10" points="
				7.596,188.584 43.344,188.584 38.29,198.797 -0.073,198.797 			"/>
		</g>
	</g>
	<g>
		<defs>
			<rect id="SVGID_27_" x="-2982.142" y="-321.641" width="3974.4" height="1932"/>
		</defs>
		<clipPath id="SVGID_28_">
			<use xlink:href="#SVGID_27_"  overflow="visible"/>
		</clipPath>
		
			<line clip-path="url(#SVGID_28_)" fill="none" stroke="#DBA6A5" stroke-width="2.76" stroke-linecap="square" stroke-miterlimit="10" x1="14.616" y1="190.499" x2="10.786" y2="196.882"/>
		
			<line clip-path="url(#SVGID_28_)" fill="none" stroke="#DBA6A5" stroke-width="2.76" stroke-linecap="square" stroke-miterlimit="10" x1="21" y1="190.499" x2="17.17" y2="196.882"/>
		
			<line clip-path="url(#SVGID_28_)" fill="none" stroke="#DBA6A5" stroke-width="2.76" stroke-linecap="square" stroke-miterlimit="10" x1="27.384" y1="190.499" x2="23.553" y2="196.882"/>
		
			<line clip-path="url(#SVGID_28_)" fill="none" stroke="#DBA6A5" stroke-width="2.76" stroke-linecap="square" stroke-miterlimit="10" x1="33.768" y1="190.499" x2="29.938" y2="196.882"/>
	</g>
	<g>
		<defs>
			<path id="SVGID_29_" d="M-0.064,201.248l1.38,1.38v-2.554c0-0.651,0.527-1.174,1.192-1.174h35.728l-1.38-1.38v5.107l1.38-1.38
				H-0.064z M-0.064,204.008h38.3h1.38v-1.38v-5.107v-1.38h-1.38H2.508c-2.183,0-3.952,1.752-3.952,3.934v2.554v1.38H-0.064z
				 M-56.644,140.941h151.46v118.267h-151.46V140.941z"/>
		</defs>
		<clipPath id="SVGID_30_">
			<use xlink:href="#SVGID_29_"  overflow="visible"/>
		</clipPath>
		<g clip-path="url(#SVGID_30_)">
			<defs>
				<path id="SVGID_31_" d="M-0.064,202.628h38.3v-5.107H2.508c-1.421,0-2.572,1.134-2.572,2.554V202.628z"/>
			</defs>
			<clipPath id="SVGID_32_">
				<use xlink:href="#SVGID_31_"  overflow="visible"/>
			</clipPath>
			<g clip-path="url(#SVGID_32_)">
				<defs>
					<rect id="SVGID_33_" x="-2982.142" y="-321.641" width="3974.4" height="1932"/>
				</defs>
				<clipPath id="SVGID_34_">
					<use xlink:href="#SVGID_33_"  overflow="visible"/>
				</clipPath>
				<path clip-path="url(#SVGID_34_)" fill="#DBA6A5" d="M-0.064,202.628h38.3v-5.107H2.508c-1.421,0-2.572,1.134-2.572,2.554
					V202.628z"/>
			</g>
		</g>
	</g>
	<g>
		<defs>
			<path id="SVGID_35_" d="M-0.064,202.628h38.3v-5.107H2.508c-1.421,0-2.572,1.134-2.572,2.554V202.628z"/>
		</defs>
		<clipPath id="SVGID_36_">
			<use xlink:href="#SVGID_35_"  overflow="visible"/>
		</clipPath>
		<g clip-path="url(#SVGID_36_)">
			<defs>
				<rect id="SVGID_37_" x="-2982.142" y="-321.641" width="3974.4" height="1932"/>
			</defs>
			<clipPath id="SVGID_38_">
				<use xlink:href="#SVGID_37_"  overflow="visible"/>
			</clipPath>
			<path clip-path="url(#SVGID_38_)" fill="none" stroke="#DBA6A5" stroke-width="5.52" stroke-miterlimit="10" d="M-0.064,202.628
				h38.302v-5.107H2.508c-1.421,0-2.572,1.133-2.572,2.553V202.628z"/>
		</g>
	</g>
	<g>
		<defs>
			<path id="SVGID_39_" d="M42.109,191.797l-0.147,0.617v-3.83l2.581,0.685l-5.109,8.937l0.182-0.685v5.107l-2.614-0.617
				L42.109,191.797z M44.579,193.031l-5.109,10.214l-2.614,5.229v-5.846v-5.107v-0.366l0.182-0.318l5.106-8.937l2.578-4.512v5.196
				v3.83v0.326L44.579,193.031z M99.922,128.187H-18.344v135.486H99.922V128.187z"/>
		</defs>
		<clipPath id="SVGID_40_">
			<use xlink:href="#SVGID_39_"  overflow="visible"/>
		</clipPath>
		<g clip-path="url(#SVGID_40_)">
			<defs>
				<polygon id="SVGID_41_" points="43.342,192.414 38.236,202.628 38.236,197.521 43.342,188.584 				"/>
			</defs>
			<clipPath id="SVGID_42_">
				<use xlink:href="#SVGID_41_"  overflow="visible"/>
			</clipPath>
			<g clip-path="url(#SVGID_42_)">
				<defs>
					<rect id="SVGID_43_" x="-2982.142" y="-321.641" width="3974.4" height="1932"/>
				</defs>
				<clipPath id="SVGID_44_">
					<use xlink:href="#SVGID_43_"  overflow="visible"/>
				</clipPath>
				<polygon opacity="0" clip-path="url(#SVGID_44_)" fill="#D8D8D8" points="43.342,192.414 38.236,202.628 38.236,197.521 
					43.342,188.584 				"/>
			</g>
		</g>
	</g>
	<g>
		<defs>
			<polygon id="SVGID_45_" points="43.342,192.414 38.236,202.628 38.236,197.521 43.342,188.584 			"/>
		</defs>
		<clipPath id="SVGID_46_">
			<use xlink:href="#SVGID_45_"  overflow="visible"/>
		</clipPath>
		<g clip-path="url(#SVGID_46_)">
			<defs>
				<rect id="SVGID_47_" x="-2982.142" y="-321.641" width="3974.4" height="1932"/>
			</defs>
			<clipPath id="SVGID_48_">
				<use xlink:href="#SVGID_47_"  overflow="visible"/>
			</clipPath>
			<polygon clip-path="url(#SVGID_48_)" fill="none" stroke="#DBA6A5" stroke-width="5.52" stroke-miterlimit="10" points="
				43.342,192.414 38.235,202.628 38.235,197.521 43.342,188.584 			"/>
		</g>
	</g>
</g>
<g>
	<g>
		<defs>
			<polygon id="SVGID_49_" points="21.987,114.528 8.406,121.667 11,106.546 0.014,95.837 15.198,93.631 21.987,79.872 
				28.777,93.631 43.961,95.837 32.973,106.546 35.567,121.667 			"/>
		</defs>
		<clipPath id="SVGID_50_">
			<use xlink:href="#SVGID_49_"  overflow="visible"/>
		</clipPath>
		<g clip-path="url(#SVGID_50_)">
			<g>
				<defs>
					<rect id="SVGID_51_" x="-523.845" y="-483.288" width="794.2" height="1926.296"/>
				</defs>
				<clipPath id="SVGID_52_">
					<use xlink:href="#SVGID_51_"  overflow="visible"/>
				</clipPath>
				<polygon clip-path="url(#SVGID_52_)" fill="#D7A6A4" stroke="#D7A6A4" stroke-width="10.9867" stroke-miterlimit="10" points="
					21.987,114.528 8.406,121.667 11,106.546 0.014,95.837 15.198,93.631 21.987,79.872 28.777,93.631 43.961,95.837 
					32.973,106.546 35.567,121.667 				"/>
			</g>
		</g>
	</g>
</g>
<g>
	<defs>
		<path id="SVGID_53_" d="M31.099,255.461c-0.002-0.001-0.002-0.001-0.002-0.002l-15.462-15.461
			c-0.844-0.846-2.242-0.858-3.098-0.004c-0.86,0.86-0.853,2.241,0.005,3.098l13.917,13.918l-13.917,13.918
			c-0.847,0.846-0.858,2.243-0.005,3.098c0.86,0.86,2.242,0.853,3.098-0.004l15.462-15.461c0-0.001,0-0.001,0.002-0.002
			c0-0.001,0-0.001,0-0.002c0.431-0.429,0.643-0.989,0.643-1.548c-0.004-0.558-0.217-1.12-0.643-1.546
			C31.099,255.462,31.099,255.462,31.099,255.461z"/>
	</defs>
	<clipPath id="SVGID_54_">
		<use xlink:href="#SVGID_53_"  overflow="visible"/>
	</clipPath>
	<g clip-path="url(#SVGID_54_)">
		<defs>
			<rect id="SVGID_55_" x="-2701.754" y="-192.504" width="3150.104" height="1531.301"/>
		</defs>
		<clipPath id="SVGID_56_">
			<use xlink:href="#SVGID_55_"  overflow="visible"/>
		</clipPath>
		
			<rect x="-9.98" y="232.946" transform="matrix(-0.7071 -0.7071 0.7071 -0.7071 -157.6863 448.7051)" clip-path="url(#SVGID_56_)" fill="#969696" width="48.128" height="48.128"/>
	</g>
</g>
<g>
	<g>
		<defs>
			<path id="SVGID_57_" d="M33.669,310.042c-0.301,0.036-0.58,0.173-0.792,0.389l-20.001,19.996
				c-0.183,0.182-0.308,0.414-0.361,0.666l-1.778,8.443c-0.154,0.72,0.305,1.429,1.025,1.583c0.184,0.039,0.375,0.039,0.559,0
				l8.445-1.777c0.254-0.057,0.486-0.188,0.667-0.375l20.001-19.996c0.513-0.52,0.513-1.355,0-1.875l-6.667-6.665
				C34.48,310.14,34.075,309.997,33.669,310.042z M33.822,313.25l4.778,4.79l-18.112,18.108l-4.778-4.777L33.822,313.25z
				 M3.013,314.486c-0.681,0.071-1.198,0.648-1.194,1.333v32.882c0,0.736,0.597,1.333,1.334,1.333h32.892
				c0.737,0,1.333-0.597,1.333-1.333v-19.552c0.01-0.736-0.578-1.341-1.315-1.351c-0.737-0.011-1.342,0.577-1.352,1.314
				c0,0.012,0,0.025,0,0.037v18.219H4.486v-30.216H22.71c0.736,0.01,1.342-0.578,1.352-1.315c0.011-0.735-0.578-1.341-1.314-1.351
				H22.71H3.153C3.106,314.483,3.06,314.483,3.013,314.486z M14.612,334.037l3.195,3.194l-4.042,0.861L14.612,334.037z"/>
		</defs>
		<use xlink:href="#SVGID_57_"  overflow="visible" fill="#FFFFFF"/>
		<clipPath id="SVGID_58_">
			<use xlink:href="#SVGID_57_"  overflow="visible"/>
		</clipPath>
		<g clip-path="url(#SVGID_58_)">
			<g>
				<defs>
					<rect id="SVGID_59_" x="-678.181" y="-760.025" width="750" height="4482"/>
				</defs>
				<use xlink:href="#SVGID_59_"  overflow="visible" fill="#FFFFFF"/>
				<clipPath id="SVGID_60_">
					<use xlink:href="#SVGID_59_"  overflow="visible"/>
				</clipPath>
				<rect x="-8.181" y="300.034" clip-path="url(#SVGID_60_)" fill="#FFFFFF" width="60" height="60"/>
			</g>
		</g>
	</g>
</g>
<g>
	<g>
		<defs>
			<path id="SVGID_61_" d="M33.669,394.734c-0.301,0.036-0.58,0.173-0.792,0.389l-20.001,19.996
				c-0.183,0.182-0.308,0.414-0.361,0.666l-1.778,8.443c-0.154,0.72,0.305,1.429,1.025,1.583c0.184,0.039,0.375,0.039,0.559,0
				l8.445-1.777c0.254-0.057,0.486-0.188,0.667-0.375l20.001-19.996c0.513-0.52,0.513-1.355,0-1.875l-6.667-6.665
				C34.48,394.832,34.075,394.689,33.669,394.734z M33.822,397.942l4.778,4.79L20.488,420.84l-4.778-4.777L33.822,397.942z
				 M3.013,399.178c-0.681,0.071-1.198,0.648-1.194,1.333v32.882c0,0.736,0.597,1.333,1.334,1.333h32.892
				c0.737,0,1.333-0.597,1.333-1.333v-19.552c0.01-0.736-0.578-1.341-1.315-1.351c-0.737-0.011-1.342,0.577-1.352,1.314
				c0,0.012,0,0.025,0,0.037v18.219H4.486v-30.216H22.71c0.736,0.01,1.342-0.578,1.352-1.315c0.011-0.735-0.578-1.341-1.314-1.351
				H22.71H3.153C3.106,399.175,3.06,399.175,3.013,399.178z M14.612,418.729l3.195,3.194l-4.042,0.861L14.612,418.729z"/>
		</defs>
		<clipPath id="SVGID_62_">
			<use xlink:href="#SVGID_61_"  overflow="visible"/>
		</clipPath>
		<g clip-path="url(#SVGID_62_)">
			<g>
				<defs>
					<rect id="SVGID_63_" x="-678.181" y="-675.333" width="750" height="4482"/>
				</defs>
				<clipPath id="SVGID_64_">
					<use xlink:href="#SVGID_63_"  overflow="visible"/>
				</clipPath>
				<rect x="-8.181" y="384.726" clip-path="url(#SVGID_64_)" fill="#DD433F" width="60" height="60"/>
			</g>
		</g>
	</g>
</g>
</svg>
