<?xml version="1.0" encoding="utf-8"?>
<!-- Generator: Adobe Illustrator 17.0.0, SVG Export Plug-In . SVG Version: 6.00 Build 0)  -->
<!DOCTYPE svg PUBLIC "-//W3C//DTD SVG 1.1//EN" "http://www.w3.org/Graphics/SVG/1.1/DTD/svg11.dtd">
<svg version="1.1" id="Layer_1" xmlns="http://www.w3.org/2000/svg" xmlns:xlink="http://www.w3.org/1999/xlink" x="0px" y="0px"
	 width="28.149px" height="38.009px" viewBox="0 0 28.149 38.009" enable-background="new 0 0 28.149 38.009" xml:space="preserve">
<g>
	<g>
		<path fill="#DEDDDD" d="M14.074,0c-2.369,0-4.307,2.212-4.307,4.916v4.578c0.005-0.001,0.87-0.226,2.161-0.409
			c0.496-0.73,1.268-1.208,2.146-1.208c0.874,0,1.643,0.475,2.14,1.199c0.686,0.097,1.446,0.244,2.168,0.469v-4.63
			C18.381,2.212,16.443,0,14.074,0z"/>
		<path fill="#DEDDDD" d="M14.074,14.008c-1.011,0-1.883-0.632-2.35-1.558c-0.609,0.046-1.296,0.06-1.958,0.154V28.99v8.175
			c0,0.464,0.356,0.844,0.792,0.844h7.031c0.435,0,0.792-0.38,0.792-0.844V28.99V12.733c0,0-0.758-0.151-1.969-0.259
			C15.943,13.387,15.077,14.008,14.074,14.008z"/>
	</g>
	<g>
		<path fill="#DEDDDD" d="M3.943,1.929C1.774,1.929,0,3.954,0,6.429v4.191c0.005-0.001,0.796-0.207,1.978-0.374
			C2.433,9.578,3.14,9.14,3.943,9.14c0.8,0,1.504,0.435,1.959,1.098c0.628,0.089,1.324,0.223,1.985,0.43V6.429
			C7.887,3.954,6.112,1.929,3.943,1.929z"/>
		<path fill="#DEDDDD" d="M3.943,14.754c-0.926,0-1.724-0.578-2.151-1.426C1.234,13.37,0.606,13.383,0,13.469v15v7.483
			c0,0.425,0.326,0.772,0.725,0.772h6.437c0.399,0,0.725-0.348,0.725-0.772v-7.483V13.586c0,0-0.694-0.138-1.802-0.237
			C5.654,14.185,4.861,14.754,3.943,14.754z"/>
	</g>
	<g>
		<path fill="#DEDDDD" d="M24.206,1.929c-2.169,0-3.943,2.025-3.943,4.5v4.191c0.005-0.001,0.796-0.207,1.978-0.374
			c0.454-0.668,1.161-1.106,1.965-1.106c0.8,0,1.504,0.435,1.959,1.098c0.628,0.089,1.324,0.223,1.985,0.43V6.429
			C28.149,3.954,26.374,1.929,24.206,1.929z"/>
		<path fill="#DEDDDD" d="M24.206,14.754c-0.926,0-1.724-0.578-2.151-1.426c-0.558,0.042-1.186,0.055-1.792,0.141v15v7.483
			c0,0.425,0.326,0.772,0.725,0.772h6.437c0.399,0,0.725-0.348,0.725-0.772v-7.483V13.586c0,0-0.694-0.138-1.802-0.237
			C25.916,14.185,25.123,14.754,24.206,14.754z"/>
	</g>
</g>
</svg>
