<?xml version="1.0" encoding="utf-8"?>
<!-- Generator: Adobe Illustrator 17.0.0, SVG Export Plug-In . SVG Version: 6.00 Build 0)  -->
<!DOCTYPE svg PUBLIC "-//W3C//DTD SVG 1.1//EN" "http://www.w3.org/Graphics/SVG/1.1/DTD/svg11.dtd">
<svg version="1.1" id="Layer_1" xmlns="http://www.w3.org/2000/svg" xmlns:xlink="http://www.w3.org/1999/xlink" x="0px" y="0px"
	 width="45px" height="836px" viewBox="0 0 45 836" enable-background="new 0 0 45 836" xml:space="preserve">
<g>
	<g>
		<defs>
			<path id="SVGID_2_" d="M28.572,30.388l1.813,1.813c-0.166,0.937,0.111,1.938,0.834,2.662l8.013,8.013
				c0.589,0.589,1.36,0.884,2.133,0.884c0.771,0,1.543-0.295,2.132-0.883c1.178-1.179,1.178-3.088-0.001-4.266l-8.013-8.013
				c-0.724-0.724-1.725-1.001-2.662-0.834l-1.813-1.813c2.411-2.95,3.858-6.72,3.858-10.828C34.867,7.666,27.2,0,17.743,0
				S0.62,7.666,0.62,17.122c0,9.457,7.666,17.123,17.123,17.123C21.851,34.245,25.621,32.798,28.572,30.388z M17.743,30.44
				c-7.344,0-13.318-5.975-13.318-13.317c0-7.343,5.974-13.318,13.318-13.318c7.343,0,13.318,5.975,13.318,13.318
				S25.087,30.44,17.743,30.44"/>
		</defs>
		<clipPath id="SVGID_3_">
			<use xlink:href="#SVGID_2_"  overflow="visible"/>
		</clipPath>
		<g clip-path="url(#SVGID_3_)">
			<g>
				<defs>
					<rect id="SVGID_4_" x="-640.544" y="-70.395" width="713.462" height="1269.011"/>
				</defs>
				<clipPath id="SVGID_5_">
					<use xlink:href="#SVGID_4_"  overflow="visible"/>
				</clipPath>
				<rect x="-8.893" y="-9.513" clip-path="url(#SVGID_5_)" fill="#DD4440" width="62.785" height="62.785"/>
			</g>
		</g>
	</g>
</g>
<g>
	<g>
		<defs>
			<path id="SVGID_6_" d="M16.986,291.777c-0.972,0.972-2.494,0.972-3.381,0c-0.972-0.972-0.972-2.494,0-3.465l7.268-7.268
				c0.465-0.464,1.099-0.718,1.733-0.718c0.634,0,1.267,0.254,1.733,0.719l7.268,7.268c0.972,0.972,0.972,2.494,0,3.465
				c-0.972,0.972-2.494,0.972-3.465,0l-3.169-3.169v15.55c0,1.353-1.099,2.45-2.45,2.45c-1.353,0-2.45-1.099-2.45-2.45v-15.466
				L16.986,291.777z M40.143,301.116c1.353,0,2.45,1.099,2.45,2.45v9.381c0,1.353-1.098,2.45-2.45,2.45H4.857
				c-1.352,0.001-2.45-1.098-2.45-2.449v-9.381c0-1.353,1.099-2.45,2.45-2.45c1.353,0,2.45,1.099,2.45,2.45v6.973h30.383v-6.973
				C37.692,302.215,38.79,301.116,40.143,301.116z"/>
		</defs>
		<clipPath id="SVGID_7_">
			<use xlink:href="#SVGID_6_"  overflow="visible"/>
		</clipPath>
		<g clip-path="url(#SVGID_7_)">
			<g>
				<defs>
					<rect id="SVGID_8_" x="-1135.145" y="-112.498" width="1683.53" height="818.383"/>
				</defs>
				<clipPath id="SVGID_9_">
					<use xlink:href="#SVGID_8_"  overflow="visible"/>
				</clipPath>
				<rect x="-3.439" y="274.48" clip-path="url(#SVGID_9_)" fill="#DD4440" width="51.877" height="46.765"/>
			</g>
		</g>
	</g>
</g>
<g>
	<g>
		<g>
			<defs>
				<path id="SVGID_10_" d="M22.444,115.519c-4.301,0-7.78-3.542-7.78-7.843s3.479-7.843,7.78-7.843s7.78,3.542,7.78,7.843
					S26.745,115.519,22.444,115.519z M40.976,106.537c-0.759-9.866-8.855-17.646-18.532-17.646S4.671,96.67,4.039,106.537
					c-0.317,4.427,1.076,8.918,3.859,12.649l13.283,18.975c0.317,0.442,0.759,0.695,1.329,0.695s1.012-0.253,1.329-0.695
					l13.219-18.975C39.838,115.392,41.229,110.902,40.976,106.537z"/>
			</defs>
			<clipPath id="SVGID_11_">
				<use xlink:href="#SVGID_10_"  overflow="visible"/>
			</clipPath>
			<g clip-path="url(#SVGID_11_)">
				<g>
					<defs>
						<rect id="SVGID_12_" x="-542.718" y="-173.023" width="1830.85" height="889.996"/>
					</defs>
					<clipPath id="SVGID_13_">
						<use xlink:href="#SVGID_12_"  overflow="visible"/>
					</clipPath>
					<rect x="-2.363" y="82.534" clip-path="url(#SVGID_13_)" fill="#DD4440" width="49.725" height="62.681"/>
				</g>
			</g>
		</g>
	</g>
</g>
<g>
	<g>
		<path id="SVGID_1_" fill="#DD433F" d="M6.698,189.434c-0.266,0-0.579,0.242-0.631,0.544l-0.47,2.356h7.513l-0.47-2.356
			c-0.052-0.302-0.366-0.544-0.631-0.544H6.698z M6.023,193.301c-1.8,0-3.243,1.509-3.243,3.383v22.233
			c0,1.875,1.443,3.384,3.243,3.384h32.954c1.799,0,3.243-1.509,3.243-3.384v-22.233c0-1.875-1.443-3.383-3.243-3.383H6.023z
			 M22.5,195.703c6.472,0,11.738,5.436,11.738,12.098s-5.266,12.083-11.738,12.083s-11.738-5.421-11.738-12.083
			S16.028,195.703,22.5,195.703z M37.539,196.201c1.037,0,1.878,0.865,1.878,1.933s-0.841,1.933-1.878,1.933
			c-1.037,0-1.878-0.865-1.878-1.933S36.502,196.201,37.539,196.201z M22.5,197.651c-5.457,0-9.86,4.533-9.86,10.15
			c0,5.617,4.403,10.135,9.86,10.135s9.86-4.518,9.86-10.135C32.36,202.184,27.956,197.651,22.5,197.651z M22.5,202.484
			c2.841,0,5.165,2.392,5.165,5.317s-2.324,5.302-5.165,5.302s-5.165-2.377-5.165-5.302S19.659,202.484,22.5,202.484z M22.5,204.403
			c-1.826,0-3.287,1.518-3.287,3.398c0,1.88,1.46,3.383,3.287,3.383c1.826,0,3.287-1.503,3.287-3.383
			C25.787,205.921,24.326,204.403,22.5,204.403z"/>
	</g>
</g>
<g>
	<title>Layer 1</title>
	<g id="layer1">
		<polygon id="rect3465" fill="#FDC70C" points="24.879,645.518 33.691,645.518 33.691,645.518 		"/>
		<path id="path2426" fill="#FDC70C" d="M23.418,630.05c-0.605-0.013-1.162,0.297-1.427,0.794l-5.818,10.792l-12.974,1.741
			c-0.583,0.075-1.068,0.446-1.252,0.956c-0.184,0.51-0.035,1.072,0.384,1.449l9.445,8.379l-2.245,11.841
			c-0.104,0.537,0.141,1.082,0.629,1.397c0.488,0.316,1.131,0.346,1.652,0.079l11.649-5.573l11.607,5.547
			c0.519,0.247,1.145,0.205,1.619-0.107c0.474-0.312,0.715-0.842,0.622-1.369l-2.236-11.795l9.431-8.433
			c0.445-0.375,0.61-0.954,0.42-1.48c-0.19-0.526-0.698-0.902-1.301-0.962l-13.008-1.675l-5.809-10.78
			C24.549,630.365,24.011,630.053,23.418,630.05L23.418,630.05z"/>
	</g>
</g>
<g>
	<g>
		<defs>
			<path id="SVGID_14_" d="M2.039,573.84c0.021-0.542,0.244-1.168,0.615-1.563l12.125-12.884c0.822-0.739,2.398-1.044,3.316-0.19
				c0.905,0.84,0.879,2.472-0.023,3.316l-8.526,9.048h31.141c1.256,0,2.273,1.018,2.273,2.273c0,1.255-1.018,2.273-2.273,2.273
				H9.546l8.526,9.047c0.775,0.777,0.918,2.465,0.023,3.316c-0.895,0.85-2.528,0.579-3.316-0.19L2.654,575.403
				C2.24,574.962,2.037,574.444,2.039,573.84"/>
		</defs>
		<clipPath id="SVGID_15_">
			<use xlink:href="#SVGID_14_"  overflow="visible"/>
		</clipPath>
		<g clip-path="url(#SVGID_15_)">
			<g>
				<defs>
					<rect id="SVGID_16_" x="-119.738" y="-255.516" width="531.002" height="944.476"/>
				</defs>
				<clipPath id="SVGID_17_">
					<use xlink:href="#SVGID_16_"  overflow="visible"/>
				</clipPath>
				<rect x="-5.041" y="551.607" clip-path="url(#SVGID_17_)" fill="#DD4440" width="55.083" height="44.473"/>
			</g>
		</g>
		
			<polyline clip-path="url(#SVGID_15_)" fill="none" stroke="#5FAE4A" stroke-width="5.664" stroke-linecap="round" stroke-linejoin="round" stroke-miterlimit="10" points="
			1.968,664.888 15.656,678.576 43.032,651.2 		"/>
		<g clip-path="url(#SVGID_15_)">
			<g>
				<defs>
					<path id="SVGID_18_" d="M22.193,758.408c-1.841-1.592-3.159-1.453-3.159-1.453l14.861-15.058
						c0.828-0.946,2.245-1.588,3.168-0.734l0.201,0.188c0.923,0.854,0.432,2.314-0.397,3.262L24.08,761.088
						C24.08,761.088,24.035,759.999,22.193,758.408 M19.271,769.018c-2.731,1.609-7.993,2.079-12.033,2.083
						c3.493-1.337,4.504-3.357,5.168-4.997c0.664-1.641-0.03-4.572,2.93-6.703c0.854-0.615,2.101-0.811,2.952-0.704
						c3.016,0.376,4.713,3.099,4.442,5.35C22.564,765.435,22.002,767.41,19.271,769.018"/>
				</defs>
				<clipPath id="SVGID_19_">
					<use xlink:href="#SVGID_18_"  overflow="visible"/>
				</clipPath>
				<g clip-path="url(#SVGID_19_)">
					<g>
						<defs>
							<rect id="SVGID_20_" x="-16.835" y="715.275" width="531.002" height="944.476"/>
						</defs>
						<clipPath id="SVGID_21_">
							<use xlink:href="#SVGID_20_"  overflow="visible"/>
						</clipPath>
						<rect x="0.158" y="733.683" clip-path="url(#SVGID_21_)" fill="#FFFFFF" width="44.685" height="44.498"/>
					</g>
				</g>
			</g>
		</g>
	</g>
</g>
<g>
	<g>
		<defs>
			<path id="SVGID_22_" d="M22.116,392.954c-2.304-1.993-3.955-1.819-3.955-1.819l18.603-18.849c1.037-1.184,2.81-1.988,3.966-0.919
				l0.252,0.236c1.155,1.069,0.541,2.896-0.497,4.083l-16.007,20.624C24.478,396.309,24.421,394.946,22.116,392.954 M18.457,406.237
				c-3.418,2.015-10.005,2.602-15.063,2.607c4.372-1.674,5.638-4.202,6.47-6.255c0.831-2.054-0.037-5.724,3.668-8.39
				c1.069-0.77,2.63-1.015,3.695-0.882c3.776,0.471,5.9,3.879,5.561,6.698C22.579,401.751,21.876,404.223,18.457,406.237"/>
		</defs>
		<clipPath id="SVGID_23_">
			<use xlink:href="#SVGID_22_"  overflow="visible"/>
		</clipPath>
		<g clip-path="url(#SVGID_23_)">
			<g>
				<defs>
					<rect id="SVGID_24_" x="-26.739" y="338.961" width="664.709" height="1182.295"/>
				</defs>
				<clipPath id="SVGID_25_">
					<use xlink:href="#SVGID_24_"  overflow="visible"/>
				</clipPath>
				<rect x="-5.469" y="362.004" clip-path="url(#SVGID_25_)" fill="#FFFFFF" width="55.937" height="55.703"/>
			</g>
		</g>
	</g>
</g>
<polyline fill="none" stroke="#5FAE4A" stroke-width="5.102" stroke-linecap="round" stroke-linejoin="round" stroke-miterlimit="10" points="
	4.005,481.85 16.335,494.179 40.995,469.519 "/>
<g>
	<defs>
		<path id="SVGID_26_" d="M13.104,740.563L13.104,740.563c-0.494-0.019-0.936-0.31-1.15-0.755c-0.214-0.445-0.164-0.973,0.13-1.37
			c2.307-3.163,6.127-5.229,10.417-5.229s8.11,2.066,10.417,5.229c0.281,0.387,0.334,0.895,0.139,1.331
			c-0.196,0.437-0.61,0.735-1.086,0.783c-0.476,0.048-0.941-0.163-1.22-0.552c-1.806-2.476-4.809-4.125-8.25-4.125
			s-6.444,1.649-8.25,4.125C13.988,740.37,13.557,740.582,13.104,740.563z M30.5,718.564c1.841,0,3.333,1.492,3.333,3.333
			c0,1.841-1.492,3.333-3.333,3.333c-1.841,0-3.333-1.492-3.333-3.333C27.167,720.056,28.659,718.564,30.5,718.564z M14.5,718.564
			c1.841,0,3.333,1.492,3.333,3.333c0,1.841-1.492,3.333-3.333,3.333s-3.333-1.492-3.333-3.333
			C11.167,720.056,12.659,718.564,14.5,718.564z M22.5,708.564c-11.046,0-20,8.954-20,20c0,11.046,8.954,20,20,20s20-8.954,20-20
			C42.5,717.518,33.546,708.564,22.5,708.564z"/>
	</defs>
	<clipPath id="SVGID_27_">
		<use xlink:href="#SVGID_26_"  overflow="visible"/>
	</clipPath>
	<g clip-path="url(#SVGID_27_)">
		<defs>
			<rect id="SVGID_28_" x="-54.167" y="505.23" width="250" height="444.667"/>
		</defs>
		<clipPath id="SVGID_29_">
			<use xlink:href="#SVGID_28_"  overflow="visible"/>
		</clipPath>
		<rect x="-0.833" y="705.23" clip-path="url(#SVGID_29_)" fill="#969696" width="46.667" height="46.667"/>
	</g>
</g>
<g>
	<defs>
		<path id="SVGID_30_" d="M14.104,819.646c0.453-0.019,0.884,0.193,1.146,0.563c1.806,2.476,4.809,4.125,8.25,4.125
			c3.44,0,6.444-1.649,8.25-4.125c0.278-0.389,0.744-0.6,1.22-0.552c0.476,0.048,0.89,0.346,1.086,0.783
			c0.196,0.437,0.143,0.944-0.139,1.331C31.61,824.934,27.79,827,23.5,827c-4.29,0-8.11-2.066-10.417-5.229
			c-0.294-0.397-0.344-0.925-0.13-1.37C13.168,819.955,13.61,819.665,14.104,819.646z M31.5,805c1.841,0,3.333,1.492,3.333,3.333
			c0,1.841-1.492,3.333-3.333,3.333s-3.333-1.492-3.333-3.333C28.167,806.492,29.659,805,31.5,805z M15.5,805
			c1.841,0,3.333,1.492,3.333,3.333c0,1.841-1.492,3.333-3.333,3.333s-3.333-1.492-3.333-3.333C12.167,806.492,13.659,805,15.5,805z
			 M23.5,795c-11.046,0-20,8.954-20,20s8.954,20,20,20s20-8.954,20-20S34.546,795,23.5,795z"/>
	</defs>
	<clipPath id="SVGID_31_">
		<use xlink:href="#SVGID_30_"  overflow="visible"/>
	</clipPath>
	<g clip-path="url(#SVGID_31_)">
		<defs>
			<rect id="SVGID_32_" x="-149.833" y="591.667" width="250" height="444.667"/>
		</defs>
		<clipPath id="SVGID_33_">
			<use xlink:href="#SVGID_32_"  overflow="visible"/>
		</clipPath>
		<rect x="0.167" y="791.667" clip-path="url(#SVGID_33_)" fill="#DD433F" width="46.667" height="46.667"/>
	</g>
</g>
</svg>
