<?xml version="1.0" encoding="utf-8"?>
<!-- Generator: Adobe Illustrator 17.0.0, SVG Export Plug-In . SVG Version: 6.00 Build 0)  -->
<!DOCTYPE svg PUBLIC "-//W3C//DTD SVG 1.1//EN" "http://www.w3.org/Graphics/SVG/1.1/DTD/svg11.dtd">
<svg version="1.1" id="Layer_1" xmlns="http://www.w3.org/2000/svg" xmlns:xlink="http://www.w3.org/1999/xlink" x="0px" y="0px"
	 width="34px" height="472.654px" viewBox="0 0 34 472.654" enable-background="new 0 0 34 472.654" xml:space="preserve">
<g>
	<g>
		<g>
			<g>
				<defs>
					<path id="SVGID_2_" d="M3.377,0C3.149,0,2.878,0.209,2.833,0.469L2.429,2.5h6.476L8.5,0.469C8.455,0.209,8.186,0,7.956,0H3.377
						z M2.795,3.333C1.244,3.333,0,4.634,0,6.25v19.167c0,1.616,1.244,2.917,2.795,2.917h28.409c1.551,0,2.795-1.301,2.795-2.917
						V6.25c0-1.616-1.244-2.917-2.795-2.917H2.795z M17,5.404c5.579,0,10.119,4.687,10.119,10.43S22.58,26.251,17,26.251
						S6.881,21.577,6.881,15.833C6.881,10.09,11.421,5.404,17,5.404z M29.965,5.833c0.894,0,1.619,0.746,1.619,1.667
						s-0.725,1.667-1.619,1.667S28.347,8.421,28.347,7.5S29.071,5.833,29.965,5.833z M17,7.083c-4.704,0-8.5,3.908-8.5,8.75
						s3.796,8.737,8.5,8.737s8.5-3.895,8.5-8.737S21.705,7.083,17,7.083z M17,11.25c2.449,0,4.452,2.062,4.452,4.583
						c0,2.522-2.003,4.57-4.452,4.57s-4.452-2.049-4.452-4.57S14.551,11.25,17,11.25z M17,12.904c-1.575,0-2.833,1.309-2.833,2.93
						s1.259,2.917,2.833,2.917s2.833-1.296,2.833-2.917C19.833,14.212,18.576,12.904,17,12.904z"/>
				</defs>
				<clipPath id="SVGID_3_">
					<use xlink:href="#SVGID_2_"  overflow="visible"/>
				</clipPath>
				<rect x="-7.5" y="-2.25" clip-path="url(#SVGID_3_)" fill="#FFFFFF" width="44" height="38.333"/>
			</g>
		</g>
	</g>
</g>
<g>
	<g>
		<g>
			<g>
				<defs>
					<path id="SVGID_4_" d="M20.885,75.131l1.16,1.161c-0.107,0.599,0.071,1.24,0.534,1.703l5.127,5.127
						c0.377,0.377,0.871,0.565,1.365,0.565s0.987-0.189,1.364-0.565c0.753-0.754,0.753-1.976,0-2.729l-5.127-5.127
						c-0.464-0.464-1.104-0.641-1.703-0.534l-1.161-1.16c1.543-1.888,2.469-4.3,2.469-6.929c0-6.051-4.905-10.956-10.957-10.956
						C7.905,55.688,3,60.593,3,66.644S7.905,77.6,13.957,77.6C16.585,77.6,18.997,76.674,20.885,75.131z M13.955,76.162
						c-5.25,0-9.52-4.271-9.52-9.52c0-5.249,4.27-9.52,9.52-9.52c5.249,0,9.52,4.271,9.52,9.52S19.204,76.162,13.955,76.162"/>
				</defs>
				<clipPath id="SVGID_5_">
					<use xlink:href="#SVGID_4_"  overflow="visible"/>
				</clipPath>
				<rect x="-2" y="50.688" clip-path="url(#SVGID_5_)" fill="#FFFFFF" width="38" height="38"/>
			</g>
		</g>
	</g>
</g>
<g>
	<g>
		<g>
			<g>
				<defs>
					<path id="SVGID_6_" d="M7,124.655c0.815,0,1.519-0.511,1.9-1.261c0.984,0.09,1.6,0.213,1.6,0.213v13.358v6.717
						c0,0.381-0.289,0.693-0.643,0.693H4.143c-0.353,0-0.643-0.311-0.643-0.693v-6.717v-13.463c0.537-0.077,1.095-0.089,1.591-0.127
						C5.47,124.136,6.178,124.655,7,124.655z M7,113.375c1.925,0,3.5,1.918,3.5,4.262v4.014c-0.587-0.196-1.204-0.323-1.761-0.407
						c-0.404-0.628-1.029-1.039-1.739-1.039c-0.714,0-1.341,0.415-1.744,1.048c-1.049,0.158-1.752,0.353-1.756,0.354v-3.97
						C3.5,115.293,5.075,113.375,7,113.375z M27,124.655c0.815,0,1.519-0.511,1.9-1.261c0.984,0.09,1.6,0.213,1.6,0.213v13.358
						v6.717c0,0.381-0.289,0.693-0.643,0.693h-5.715c-0.353,0-0.643-0.311-0.643-0.693v-6.717v-13.463
						c0.537-0.077,1.095-0.089,1.591-0.127C25.47,124.136,26.178,124.655,27,124.655z M27,113.202c1.925,0,3.5,1.918,3.5,4.262
						v4.014c-0.587-0.196-1.204-0.323-1.761-0.407c-0.404-0.628-1.029-1.039-1.739-1.039c-0.714,0-1.341,0.415-1.744,1.048
						c-1.049,0.158-1.752,0.353-1.756,0.354v-3.97C23.5,115.12,25.075,113.202,27,113.202z M17,124.716
						c1.048,0,1.953-0.534,2.444-1.32c1.264,0.093,2.056,0.223,2.056,0.223v13.994v7.037c0,0.399-0.372,0.726-0.826,0.726h-7.347
						c-0.455,0-0.826-0.326-0.826-0.726v-7.037v-14.104c0.691-0.081,1.408-0.094,2.045-0.133
						C15.033,124.172,15.944,124.716,17,124.716z M17,111.375c2.475,0,4.5,2.095,4.5,4.656v4.384
						c-0.754-0.214-1.547-0.352-2.264-0.444c-0.519-0.687-1.323-1.136-2.236-1.136c-0.917,0-1.724,0.453-2.242,1.144
						c-1.35,0.173-2.253,0.385-2.258,0.387v-4.336C12.5,113.47,14.525,111.375,17,111.375z"/>
				</defs>
				<clipPath id="SVGID_8_">
					<use xlink:href="#SVGID_6_"  overflow="visible"/>
				</clipPath>
				<rect x="-1.5" y="106.375" clip-path="url(#SVGID_8_)" fill="#FFFFFF" width="37" height="44"/>
			</g>
		</g>
	</g>
</g>
<g>
	<circle fill="none" stroke="#FFFFFF" stroke-miterlimit="10" cx="7.5" cy="181.063" r="4"/>
	<circle fill="none" stroke="#FFFFFF" stroke-miterlimit="10" cx="26.5" cy="171.063" r="4"/>
	<circle fill="none" stroke="#FFFFFF" stroke-miterlimit="10" cx="26.5" cy="191.063" r="4"/>
	<line fill="none" stroke="#FFFFFF" stroke-miterlimit="10" x1="23.173" y1="173.063" x2="11.5" y2="179.684"/>
	<line fill="none" stroke="#FFFFFF" stroke-miterlimit="10" x1="23.173" y1="188.684" x2="11.5" y2="182.063"/>
</g>
<g>
	<g>
		<g>
			<path id="SVGID_7_" fill="#FFFFFF" d="M27,228.75c-1.933,0-3.5-1.567-3.5-3.5s1.567-3.5,3.5-3.5s3.5,1.567,3.5,3.5
				S28.933,228.75,27,228.75z M17,228.75c-1.933,0-3.5-1.567-3.5-3.5s1.567-3.5,3.5-3.5s3.5,1.567,3.5,3.5S18.933,228.75,17,228.75z
				 M7,228.75c-1.933,0-3.5-1.567-3.5-3.5s1.567-3.5,3.5-3.5s3.5,1.567,3.5,3.5S8.933,228.75,7,228.75z"/>
		</g>
		<g>
			<g>
				<defs>
					<path id="SVGID_9_" d="M27,228.75c-1.933,0-3.5-1.567-3.5-3.5s1.567-3.5,3.5-3.5s3.5,1.567,3.5,3.5S28.933,228.75,27,228.75z
						 M17,228.75c-1.933,0-3.5-1.567-3.5-3.5s1.567-3.5,3.5-3.5s3.5,1.567,3.5,3.5S18.933,228.75,17,228.75z M7,228.75
						c-1.933,0-3.5-1.567-3.5-3.5s1.567-3.5,3.5-3.5s3.5,1.567,3.5,3.5S8.933,228.75,7,228.75z"/>
				</defs>
				<clipPath id="SVGID_10_">
					<use xlink:href="#SVGID_9_"  overflow="visible"/>
				</clipPath>
				<path clip-path="url(#SVGID_10_)" fill="#FFFFFF" stroke="#FFFFFF" stroke-miterlimit="10" d="M27,228.75
					c-1.933,0-3.5-1.567-3.5-3.5s1.567-3.5,3.5-3.5s3.5,1.567,3.5,3.5S28.933,228.75,27,228.75z M17,228.75
					c-1.933,0-3.5-1.567-3.5-3.5s1.567-3.5,3.5-3.5s3.5,1.567,3.5,3.5S18.933,228.75,17,228.75z M7,228.75
					c-1.933,0-3.5-1.567-3.5-3.5s1.567-3.5,3.5-3.5s3.5,1.567,3.5,3.5S8.933,228.75,7,228.75z"/>
			</g>
		</g>
		<g>
			<g>
				<defs>
					<path id="SVGID_11_" d="M27,228.75c-1.933,0-3.5-1.567-3.5-3.5s1.567-3.5,3.5-3.5s3.5,1.567,3.5,3.5S28.933,228.75,27,228.75z
						 M17,228.75c-1.933,0-3.5-1.567-3.5-3.5s1.567-3.5,3.5-3.5s3.5,1.567,3.5,3.5S18.933,228.75,17,228.75z M7,228.75
						c-1.933,0-3.5-1.567-3.5-3.5s1.567-3.5,3.5-3.5s3.5,1.567,3.5,3.5S8.933,228.75,7,228.75z"/>
				</defs>
				<clipPath id="SVGID_12_">
					<use xlink:href="#SVGID_11_"  overflow="visible"/>
				</clipPath>
				<path clip-path="url(#SVGID_12_)" fill="#FFFFFF" stroke="#FFFFFF" stroke-miterlimit="10" d="M27,228.75
					c-1.933,0-3.5-1.567-3.5-3.5s1.567-3.5,3.5-3.5s3.5,1.567,3.5,3.5S28.933,228.75,27,228.75z M17,228.75
					c-1.933,0-3.5-1.567-3.5-3.5s1.567-3.5,3.5-3.5s3.5,1.567,3.5,3.5S18.933,228.75,17,228.75z M7,228.75
					c-1.933,0-3.5-1.567-3.5-3.5s1.567-3.5,3.5-3.5s3.5,1.567,3.5,3.5S8.933,228.75,7,228.75z"/>
			</g>
		</g>
		<g>
			<g>
				<defs>
					<path id="SVGID_13_" d="M27,228.75c-1.933,0-3.5-1.567-3.5-3.5s1.567-3.5,3.5-3.5s3.5,1.567,3.5,3.5S28.933,228.75,27,228.75z
						 M17,228.75c-1.933,0-3.5-1.567-3.5-3.5s1.567-3.5,3.5-3.5s3.5,1.567,3.5,3.5S18.933,228.75,17,228.75z M7,228.75
						c-1.933,0-3.5-1.567-3.5-3.5s1.567-3.5,3.5-3.5s3.5,1.567,3.5,3.5S8.933,228.75,7,228.75z"/>
				</defs>
				<clipPath id="SVGID_14_">
					<use xlink:href="#SVGID_13_"  overflow="visible"/>
				</clipPath>
				<circle clip-path="url(#SVGID_14_)" fill="#FFFFFF" stroke="#FFFFFF" stroke-miterlimit="10" cx="27" cy="225.25" r="4"/>
			</g>
		</g>
		<g>
			<g>
				<defs>
					<path id="SVGID_15_" d="M27,228.75c-1.933,0-3.5-1.567-3.5-3.5s1.567-3.5,3.5-3.5s3.5,1.567,3.5,3.5S28.933,228.75,27,228.75z
						 M17,228.75c-1.933,0-3.5-1.567-3.5-3.5s1.567-3.5,3.5-3.5s3.5,1.567,3.5,3.5S18.933,228.75,17,228.75z M7,228.75
						c-1.933,0-3.5-1.567-3.5-3.5s1.567-3.5,3.5-3.5s3.5,1.567,3.5,3.5S8.933,228.75,7,228.75z"/>
				</defs>
				<clipPath id="SVGID_16_">
					<use xlink:href="#SVGID_15_"  overflow="visible"/>
				</clipPath>
				<circle clip-path="url(#SVGID_16_)" fill="#FFFFFF" stroke="#FFFFFF" stroke-miterlimit="10" cx="27" cy="225.25" r="3"/>
			</g>
		</g>
		<g>
			<g>
				<defs>
					<path id="SVGID_17_" d="M27,228.75c-1.933,0-3.5-1.567-3.5-3.5s1.567-3.5,3.5-3.5s3.5,1.567,3.5,3.5S28.933,228.75,27,228.75z
						 M17,228.75c-1.933,0-3.5-1.567-3.5-3.5s1.567-3.5,3.5-3.5s3.5,1.567,3.5,3.5S18.933,228.75,17,228.75z M7,228.75
						c-1.933,0-3.5-1.567-3.5-3.5s1.567-3.5,3.5-3.5s3.5,1.567,3.5,3.5S8.933,228.75,7,228.75z"/>
				</defs>
				<clipPath id="SVGID_18_">
					<use xlink:href="#SVGID_17_"  overflow="visible"/>
				</clipPath>
				<circle clip-path="url(#SVGID_18_)" fill="#FFFFFF" stroke="#FFFFFF" stroke-miterlimit="10" cx="17" cy="225.25" r="4"/>
			</g>
		</g>
		<g>
			<g>
				<defs>
					<path id="SVGID_19_" d="M27,228.75c-1.933,0-3.5-1.567-3.5-3.5s1.567-3.5,3.5-3.5s3.5,1.567,3.5,3.5S28.933,228.75,27,228.75z
						 M17,228.75c-1.933,0-3.5-1.567-3.5-3.5s1.567-3.5,3.5-3.5s3.5,1.567,3.5,3.5S18.933,228.75,17,228.75z M7,228.75
						c-1.933,0-3.5-1.567-3.5-3.5s1.567-3.5,3.5-3.5s3.5,1.567,3.5,3.5S8.933,228.75,7,228.75z"/>
				</defs>
				<clipPath id="SVGID_20_">
					<use xlink:href="#SVGID_19_"  overflow="visible"/>
				</clipPath>
				<circle clip-path="url(#SVGID_20_)" fill="#FFFFFF" stroke="#FFFFFF" stroke-miterlimit="10" cx="7" cy="225.25" r="4"/>
			</g>
		</g>
		<g>
			<g>
				<defs>
					<path id="SVGID_21_" d="M27,228.75c-1.933,0-3.5-1.567-3.5-3.5s1.567-3.5,3.5-3.5s3.5,1.567,3.5,3.5S28.933,228.75,27,228.75z
						 M17,228.75c-1.933,0-3.5-1.567-3.5-3.5s1.567-3.5,3.5-3.5s3.5,1.567,3.5,3.5S18.933,228.75,17,228.75z M7,228.75
						c-1.933,0-3.5-1.567-3.5-3.5s1.567-3.5,3.5-3.5s3.5,1.567,3.5,3.5S8.933,228.75,7,228.75z"/>
				</defs>
				<clipPath id="SVGID_22_">
					<use xlink:href="#SVGID_21_"  overflow="visible"/>
				</clipPath>
				<circle clip-path="url(#SVGID_22_)" fill="#FFFFFF" stroke="#FFFFFF" stroke-miterlimit="10" cx="7" cy="225.25" r="3"/>
			</g>
		</g>
		<g>
			<g>
				<defs>
					<path id="SVGID_23_" d="M27,228.75c-1.933,0-3.5-1.567-3.5-3.5s1.567-3.5,3.5-3.5s3.5,1.567,3.5,3.5S28.933,228.75,27,228.75z
						 M17,228.75c-1.933,0-3.5-1.567-3.5-3.5s1.567-3.5,3.5-3.5s3.5,1.567,3.5,3.5S18.933,228.75,17,228.75z M7,228.75
						c-1.933,0-3.5-1.567-3.5-3.5s1.567-3.5,3.5-3.5s3.5,1.567,3.5,3.5S8.933,228.75,7,228.75z"/>
				</defs>
				<clipPath id="SVGID_24_">
					<use xlink:href="#SVGID_23_"  overflow="visible"/>
				</clipPath>
				<path clip-path="url(#SVGID_24_)" fill="#FFFFFF" stroke="#FFFFFF" stroke-miterlimit="10" d="M27,228.75
					c-1.933,0-3.5-1.567-3.5-3.5s1.567-3.5,3.5-3.5s3.5,1.567,3.5,3.5S28.933,228.75,27,228.75z M17,228.75
					c-1.933,0-3.5-1.567-3.5-3.5s1.567-3.5,3.5-3.5s3.5,1.567,3.5,3.5S18.933,228.75,17,228.75z M7,228.75
					c-1.933,0-3.5-1.567-3.5-3.5s1.567-3.5,3.5-3.5s3.5,1.567,3.5,3.5S8.933,228.75,7,228.75z"/>
			</g>
		</g>
		<g>
			<path id="SVGID_1_" fill="none" stroke="#FFFFFF" stroke-miterlimit="10" d="M27,228.75c-1.933,0-3.5-1.567-3.5-3.5
				s1.567-3.5,3.5-3.5s3.5,1.567,3.5,3.5S28.933,228.75,27,228.75z M17,228.75c-1.933,0-3.5-1.567-3.5-3.5s1.567-3.5,3.5-3.5
				s3.5,1.567,3.5,3.5S18.933,228.75,17,228.75z M7,228.75c-1.933,0-3.5-1.567-3.5-3.5s1.567-3.5,3.5-3.5s3.5,1.567,3.5,3.5
				S8.933,228.75,7,228.75z"/>
		</g>
	</g>
</g>
<g id="Tablet">
	<g id="humidor" transform="translate(-474.000000, -972.000000)">
		<g transform="translate(473.000000, 972.000000)">
			<g id="Rectangle">
				<g>
					<rect id="path-1" x="6.894" y="254.814" fill="#D8D9D8" fill-opacity="0" width="28.269" height="17.164"/>
				</g>
				<rect x="7.399" y="255.319" fill="none" stroke="#FFFFFF" width="27.26" height="16.154"/>
			</g>
			<g id="Rectangle-Copy">
				<g>
					<polygon id="path-2" fill="#D8D9D8" fill-opacity="0" points="6.894,271.977 35.164,271.977 31.125,280.054 0.836,280.054 
											"/>
				</g>
				<path fill="none" stroke="#FFFFFF" stroke-width="2" d="M7.399,272.987h26.149l-3.029,6.058H2.856L7.399,272.987z"/>
			</g>
			<path id="Line" fill="none" stroke="#FFFFFF" stroke-linecap="square" d="M12.447,273.492l-3.029,5.048"/>
			<path id="Line-Copy-5" fill="none" stroke="#FFFFFF" stroke-linecap="square" d="M17.495,273.492l-3.029,5.048"/>
			<path id="Line-Copy-3" fill="none" stroke="#FFFFFF" stroke-linecap="square" d="M22.543,273.492l-3.029,5.048"/>
			<path id="Line-Copy-4" fill="none" stroke="#FFFFFF" stroke-linecap="square" d="M27.591,273.492l-3.029,5.048"/>
			<path id="Rectangle-Copy-2" fill="none" stroke="#FFFFFF" d="M1.341,282.579v-2.524c0-0.303,0.202-0.505,0.505-0.505H30.62v3.029
				H1.341z"/>
			<g id="Rectangle-Copy-3" transform="translate(33.000000, 22.500000) scale(-1, 1) translate(-33.000000, -22.500000) ">
				<g>
					<polygon fill="#FFFFFF" points="30.836,274.905 30.836,271.977 35.077,279.853 34.875,283.083 					"/>
				</g>
			</g>
		</g>
	</g>
</g>
<g>
	<g>
		<g>
			<path id="SVGID_25_" fill="#FFFFFF" d="M26.29,331.917c-3.184,0-4.629-2.728-4.755-2.964c-0.125-0.236-0.188-1.729,0.231-2.105
				c2.472-2.473,3.579-5.201,3.687-6.452c0.256-2.96,0.191-4.273,0-6.201c-0.345-3.496-4.426-6.275-8.443-6.283v-0.002
				c-0.004,0-0.008,0.001-0.011,0.001s-0.007-0.001-0.01-0.001v0.002c-4.016,0.008-8.098,2.787-8.443,6.283
				c-0.191,1.929-0.256,3.241,0,6.201c0.108,1.252,1.215,3.98,3.688,6.452c0.418,0.377,0.356,1.869,0.231,2.105
				c-0.126,0.236-1.572,2.964-4.755,2.964c-3.186,0-7.375,0.168-7.375,3.603c0,3.434,4.604,4.815,16.655,4.818H17h0.01
				c12.051-0.003,16.655-1.384,16.655-4.818C33.665,332.084,29.474,331.917,26.29,331.917"/>
		</g>
		<g>
			<defs>
				<path id="SVGID_26_" d="M26.29,331.917c-3.184,0-4.629-2.728-4.755-2.964c-0.125-0.236-0.188-1.729,0.231-2.105
					c2.472-2.473,3.579-5.201,3.687-6.452c0.256-2.96,0.191-4.273,0-6.201c-0.345-3.496-4.426-6.275-8.443-6.283v-0.002
					c-0.004,0-0.008,0.001-0.011,0.001s-0.007-0.001-0.01-0.001v0.002c-4.016,0.008-8.098,2.787-8.443,6.283
					c-0.191,1.929-0.256,3.241,0,6.201c0.108,1.252,1.215,3.98,3.688,6.452c0.418,0.377,0.356,1.869,0.231,2.105
					c-0.126,0.236-1.572,2.964-4.755,2.964c-3.186,0-7.375,0.168-7.375,3.603c0,3.434,4.604,4.815,16.655,4.818H17h0.01
					c12.051-0.003,16.655-1.384,16.655-4.818C33.665,332.084,29.474,331.917,26.29,331.917"/>
			</defs>
			<clipPath id="SVGID_28_">
				<use xlink:href="#SVGID_26_"  overflow="visible"/>
			</clipPath>
			<g clip-path="url(#SVGID_28_)">
				<g>
					<g>
						<rect id="SVGID_27_" x="-73.735" y="-110.575" fill="#FFFFFF" width="694.389" height="1235.086"/>
					</g>
					<g>
						<defs>
							<rect id="SVGID_30_" x="-73.735" y="-110.575" width="694.389" height="1235.086"/>
						</defs>
						<clipPath id="SVGID_32_">
							<use xlink:href="#SVGID_30_"  overflow="visible"/>
						</clipPath>
						<rect x="-8.926" y="298.651" clip-path="url(#SVGID_32_)" fill="#FFFFFF" width="51.848" height="50.946"/>
					</g>
				</g>
				<g>
					<defs>
						<path id="SVGID_34_" d="M26.29,331.917c-3.184,0-4.629-2.728-4.755-2.964c-0.125-0.236-0.188-1.729,0.231-2.105
							c2.472-2.473,3.579-5.201,3.687-6.452c0.256-2.96,0.191-4.273,0-6.201c-0.345-3.496-4.426-6.275-8.443-6.283v-0.002
							c-0.004,0-0.008,0.001-0.011,0.001s-0.007-0.001-0.01-0.001v0.002c-4.016,0.008-8.098,2.787-8.443,6.283
							c-0.191,1.929-0.256,3.241,0,6.201c0.108,1.252,1.215,3.98,3.688,6.452c0.418,0.377,0.356,1.869,0.231,2.105
							c-0.126,0.236-1.572,2.964-4.755,2.964c-3.186,0-7.375,0.168-7.375,3.603c0,3.434,4.604,4.815,16.655,4.818H17h0.01
							c12.051-0.003,16.655-1.384,16.655-4.818C33.665,332.084,29.474,331.917,26.29,331.917"/>
					</defs>
					<clipPath id="SVGID_36_">
						<use xlink:href="#SVGID_34_"  overflow="visible"/>
					</clipPath>
					<g clip-path="url(#SVGID_36_)">
						<g>
							<g>
								<path id="SVGID_29_" fill="#FFFFFF" d="M21.542,377.817c3.706,1.708,6.277,5.44,6.277,9.77c0,0.181-0.005,0.359-0.013,0.538
									h0.013v10.762c0,1.485,0.986,3.377,2.208,4.227l0.993,0.692c1.219,0.849,1.005,1.537-0.482,1.537H3.459
									c-1.486,0-1.704-0.686-0.482-1.537l0.993-0.692c1.22-0.849,2.208-2.743,2.208-4.227v-10.761h0.013
									c-0.008-0.179-0.013-0.357-0.013-0.538c0-4.33,2.571-8.062,6.277-9.77c-0.036-0.145-0.056-0.297-0.056-0.454
									c0-1.041,0.841-1.883,1.883-1.883h5.431c1.041,0,1.883,0.845,1.883,1.883C21.598,377.52,21.579,377.672,21.542,377.817z
									 M20.786,406.42c0,1.783-1.695,3.228-3.787,3.228s-3.788-1.445-3.788-3.228H20.786z"/>
							</g>
							<g>
								<defs>
									<path id="SVGID_38_" d="M21.542,377.817c3.706,1.708,6.277,5.44,6.277,9.77c0,0.181-0.005,0.359-0.013,0.538h0.013v10.762
										c0,1.485,0.986,3.377,2.208,4.227l0.993,0.692c1.219,0.849,1.005,1.537-0.482,1.537H3.459
										c-1.486,0-1.704-0.686-0.482-1.537l0.993-0.692c1.22-0.849,2.208-2.743,2.208-4.227v-10.761h0.013
										c-0.008-0.179-0.013-0.357-0.013-0.538c0-4.33,2.571-8.062,6.277-9.77c-0.036-0.145-0.056-0.297-0.056-0.454
										c0-1.041,0.841-1.883,1.883-1.883h5.431c1.041,0,1.883,0.845,1.883,1.883C21.598,377.52,21.579,377.672,21.542,377.817z
										 M20.786,406.42c0,1.783-1.695,3.228-3.787,3.228s-3.788-1.445-3.788-3.228H20.786z"/>
								</defs>
								<clipPath id="SVGID_40_">
									<use xlink:href="#SVGID_38_"  overflow="visible"/>
								</clipPath>
								<g clip-path="url(#SVGID_40_)">
									<g>
										<g>
											<rect id="SVGID_31_" x="-73.735" y="-146.7" fill="#FFFFFF" width="694.389" height="1235.086"/>
										</g>
										<g>
											<defs>
												<rect id="SVGID_42_" x="-73.735" y="-146.7" width="694.389" height="1235.086"/>
											</defs>
											<clipPath id="SVGID_44_">
												<use xlink:href="#SVGID_42_"  overflow="visible"/>
											</clipPath>
											<rect x="-7.074" y="366.222" clip-path="url(#SVGID_44_)" fill="#FFFFFF" width="48.144" height="52.686"/>
										</g>
									</g>
									<g>
										<defs>
											<path id="SVGID_46_" d="M21.542,377.817c3.706,1.708,6.277,5.44,6.277,9.77c0,0.181-0.005,0.359-0.013,0.538h0.013
												v10.762c0,1.485,0.986,3.377,2.208,4.227l0.993,0.692c1.219,0.849,1.005,1.537-0.482,1.537H3.459
												c-1.486,0-1.704-0.686-0.482-1.537l0.993-0.692c1.22-0.849,2.208-2.743,2.208-4.227v-10.761h0.013
												c-0.008-0.179-0.013-0.357-0.013-0.538c0-4.33,2.571-8.062,6.277-9.77c-0.036-0.145-0.056-0.297-0.056-0.454
												c0-1.041,0.841-1.883,1.883-1.883h5.431c1.041,0,1.883,0.845,1.883,1.883C21.598,377.52,21.579,377.672,21.542,377.817z
												 M20.786,406.42c0,1.783-1.695,3.228-3.787,3.228s-3.788-1.445-3.788-3.228H20.786z"/>
										</defs>
										<clipPath id="SVGID_47_">
											<use xlink:href="#SVGID_46_"  overflow="visible"/>
										</clipPath>
										<g clip-path="url(#SVGID_47_)">
											<g>
												<g>
													<path id="SVGID_33_" fill="#FFFFFF" d="M10.929,467.267c-0.968-0.852-1.024-2.277-0.137-3.21l8.991-9.465
														c0.888-0.933,2.363-1.001,3.33-0.149l0.127,0.112c0.972,0.854,1.03,2.277,0.145,3.21l-8.993,9.461
														c-0.888,0.934-2.366,1.005-3.336,0.152L10.929,467.267z M28.911,448.444c3.3,2.907,3.868,7.488,1.275,10.219
														l-2.796,2.94c-1.905,2.005-5.003,2.456-7.804,1.419l4.451-4.685c0.03-0.032,0.063-0.066,0.095-0.098l2.346-2.468
														c1.18-1.243,1.189-3.09-0.3-4.402c-1.512-1.331-3.42-1.16-4.602,0.082l-2.407,2.534
														c-0.002,0.001-0.005,0.004-0.005,0.004c-0.008,0.011-0.019,0.019-0.03,0.03l-4.451,4.685
														c-1.322-2.592-1.13-5.603,0.776-7.611l2.795-2.941C20.849,445.424,25.639,445.562,28.911,448.444z M15.044,467.801
														l4.263-4.484c1.324,2.598,1.131,5.603-0.772,7.603l-2.795,2.943c-2.593,2.728-7.373,2.577-10.645-0.306l-0.026-0.022
														c-3.274-2.884-3.852-7.451-1.258-10.182l2.795-2.943c1.907-2.005,5.004-2.457,7.805-1.42l-4.266,4.493
														c-0.043,0.042-0.081,0.085-0.119,0.128c-0.034,0.033-0.067,0.067-0.099,0.099l-2.408,2.533
														c-1.18,1.243-1.159,3.057,0.33,4.368l0.024,0.021c1.49,1.313,3.369,1.172,4.549-0.069l2.407-2.533
														c0.027-0.029,0.05-0.058,0.075-0.085C14.949,467.9,14.996,467.851,15.044,467.801z"/>
												</g>
												<g>
													<defs>
														<path id="SVGID_48_" d="M10.929,467.267c-0.968-0.852-1.024-2.277-0.137-3.21l8.991-9.465
															c0.888-0.933,2.363-1.001,3.33-0.149l0.127,0.112c0.972,0.854,1.03,2.277,0.145,3.21l-8.993,9.461
															c-0.888,0.934-2.366,1.005-3.336,0.152L10.929,467.267z M28.911,448.444c3.3,2.907,3.868,7.488,1.275,10.219
															l-2.796,2.94c-1.905,2.005-5.003,2.456-7.804,1.419l4.451-4.685c0.03-0.032,0.063-0.066,0.095-0.098l2.346-2.468
															c1.18-1.243,1.189-3.09-0.3-4.402c-1.512-1.331-3.42-1.16-4.602,0.082l-2.407,2.534
															c-0.002,0.001-0.005,0.004-0.005,0.004c-0.008,0.011-0.019,0.019-0.03,0.03l-4.451,4.685
															c-1.322-2.592-1.13-5.603,0.776-7.611l2.795-2.941C20.849,445.424,25.639,445.562,28.911,448.444z M15.044,467.801
															l4.263-4.484c1.324,2.598,1.131,5.603-0.772,7.603l-2.795,2.943c-2.593,2.728-7.373,2.577-10.645-0.306l-0.026-0.022
															c-3.274-2.884-3.852-7.451-1.258-10.182l2.795-2.943c1.907-2.005,5.004-2.457,7.805-1.42l-4.266,4.493
															c-0.043,0.042-0.081,0.085-0.119,0.128c-0.034,0.033-0.067,0.067-0.099,0.099l-2.408,2.533
															c-1.18,1.243-1.159,3.057,0.33,4.368l0.024,0.021c1.49,1.313,3.369,1.172,4.549-0.069l2.407-2.533
															c0.027-0.029,0.05-0.058,0.075-0.085C14.949,467.9,14.996,467.851,15.044,467.801z"/>
													</defs>
													<clipPath id="SVGID_49_">
														<use xlink:href="#SVGID_48_"  overflow="visible"/>
													</clipPath>
													<g clip-path="url(#SVGID_49_)">
														<g>
															<g>
																<rect id="SVGID_35_" x="-73.735" y="-177.833" fill="#FFFFFF" width="694.389" height="1235.086"/>
															</g>
															<g>
																<defs>
																	<rect id="SVGID_50_" x="-73.735" y="-177.833" width="694.389" height="1235.086"/>
																</defs>
																<clipPath id="SVGID_51_">
																	<use xlink:href="#SVGID_50_"  overflow="visible"/>
																</clipPath>
																<rect x="-7.074" y="436.933" clip-path="url(#SVGID_51_)" fill="#FFFFFF" width="48.144" height="48.144"/>
															</g>
														</g>
														<g>
															<defs>
																<path id="SVGID_52_" d="M10.929,467.267c-0.968-0.852-1.024-2.277-0.137-3.21l8.991-9.465
																	c0.888-0.933,2.363-1.001,3.33-0.149l0.127,0.112c0.972,0.854,1.03,2.277,0.145,3.21l-8.993,9.461
																	c-0.888,0.934-2.366,1.005-3.336,0.152L10.929,467.267z M28.911,448.444c3.3,2.907,3.868,7.488,1.275,10.219
																	l-2.796,2.94c-1.905,2.005-5.003,2.456-7.804,1.419l4.451-4.685c0.03-0.032,0.063-0.066,0.095-0.098l2.346-2.468
																	c1.18-1.243,1.189-3.09-0.3-4.402c-1.512-1.331-3.42-1.16-4.602,0.082l-2.407,2.534
																	c-0.002,0.001-0.005,0.004-0.005,0.004c-0.008,0.011-0.019,0.019-0.03,0.03l-4.451,4.685
																	c-1.322-2.592-1.13-5.603,0.776-7.611l2.795-2.941C20.849,445.424,25.639,445.562,28.911,448.444z M15.044,467.801
																	l4.263-4.484c1.324,2.598,1.131,5.603-0.772,7.603l-2.795,2.943c-2.593,2.728-7.373,2.577-10.645-0.306
																	l-0.026-0.022c-3.274-2.884-3.852-7.451-1.258-10.182l2.795-2.943c1.907-2.005,5.004-2.457,7.805-1.42l-4.266,4.493
																	c-0.043,0.042-0.081,0.085-0.119,0.128c-0.034,0.033-0.067,0.067-0.099,0.099l-2.408,2.533
																	c-1.18,1.243-1.159,3.057,0.33,4.368l0.024,0.021c1.49,1.313,3.369,1.172,4.549-0.069l2.407-2.533
																	c0.027-0.029,0.05-0.058,0.075-0.085C14.949,467.9,14.996,467.851,15.044,467.801z"/>
															</defs>
															<clipPath id="SVGID_53_">
																<use xlink:href="#SVGID_52_"  overflow="visible"/>
															</clipPath>
															<g clip-path="url(#SVGID_53_)">
																<g>
																	<g>
																		<path id="SVGID_37_" fill="#FFFFFF" d="M17.106,544.152c-3.085,0-5.947-0.952-8.312-2.575l-5.409,0.665
																			c-0.898,0.114-1.402-0.494-1.124-1.355l1.604-5.034c-0.939-1.937-1.466-4.111-1.466-6.407
																			c0-8.122,6.585-14.706,14.706-14.706c8.122,0,14.706,6.585,14.706,14.706S25.227,544.152,17.106,544.152
																			 M24.532,527.486l-3.803-1.358l-1.462-3.839c-0.277-0.733-0.945-0.873-1.492-0.312l-2.898,2.953l-3.847-0.266
																			c-0.781-0.056-1.189,0.492-0.909,1.224l1.629,4.302l-1.231,3.865c-0.241,0.746,0.195,1.272,0.973,1.173
																			l4.493-0.553l3.896,2.305c0.673,0.401,1.283,0.094,1.362-0.685l0.418-4.035l3.215-3.29
																			C25.425,528.412,25.271,527.747,24.532,527.486"/>
																	</g>
																	<g>
																		<defs>
																			<path id="SVGID_54_" d="M17.106,544.152c-3.085,0-5.947-0.952-8.312-2.575l-5.409,0.665
																				c-0.898,0.114-1.402-0.494-1.124-1.355l1.604-5.034c-0.939-1.937-1.466-4.111-1.466-6.407
																				c0-8.122,6.585-14.706,14.706-14.706c8.122,0,14.706,6.585,14.706,14.706S25.227,544.152,17.106,544.152
																				 M24.532,527.486l-3.803-1.358l-1.462-3.839c-0.277-0.733-0.945-0.873-1.492-0.312l-2.898,2.953l-3.847-0.266
																				c-0.781-0.056-1.189,0.492-0.909,1.224l1.629,4.302l-1.231,3.865c-0.241,0.746,0.195,1.272,0.973,1.173
																				l4.493-0.553l3.896,2.305c0.673,0.401,1.283,0.094,1.362-0.685l0.418-4.035l3.215-3.29
																				C25.425,528.412,25.271,527.747,24.532,527.486"/>
																		</defs>
																		<clipPath id="SVGID_55_">
																			<use xlink:href="#SVGID_54_"  overflow="visible"/>
																		</clipPath>
																		<g clip-path="url(#SVGID_55_)">
																			<g>
																				<g>
																					<rect id="SVGID_39_" x="-73.735" y="-211.129" fill="#FFFFFF" width="694.389" height="1235.086"/>
																				</g>
																				<g>
																					<defs>
																						<rect id="SVGID_56_" x="-73.735" y="-211.129" width="694.389" height="1235.086"/>
																					</defs>
																					<clipPath id="SVGID_57_">
																						<use xlink:href="#SVGID_56_"  overflow="visible"/>
																					</clipPath>
																					<rect x="-7.074" y="505.48" clip-path="url(#SVGID_57_)" fill="#FFFFFF" width="48.144" height="47.93"/>
																				</g>
																			</g>
																			<g>
																				<defs>
																					<path id="SVGID_58_" d="M17.106,544.152c-3.085,0-5.947-0.952-8.312-2.575l-5.409,0.665
																						c-0.898,0.114-1.402-0.494-1.124-1.355l1.604-5.034c-0.939-1.937-1.466-4.111-1.466-6.407
																						c0-8.122,6.585-14.706,14.706-14.706c8.122,0,14.706,6.585,14.706,14.706S25.227,544.152,17.106,544.152
																						 M24.532,527.486l-3.803-1.358l-1.462-3.839c-0.277-0.733-0.945-0.873-1.492-0.312l-2.898,2.953l-3.847-0.266
																						c-0.781-0.056-1.189,0.492-0.909,1.224l1.629,4.302l-1.231,3.865c-0.241,0.746,0.195,1.272,0.973,1.173
																						l4.493-0.553l3.896,2.305c0.673,0.401,1.283,0.094,1.362-0.685l0.418-4.035l3.215-3.29
																						C25.425,528.412,25.271,527.747,24.532,527.486"/>
																				</defs>
																				<clipPath id="SVGID_59_">
																					<use xlink:href="#SVGID_58_"  overflow="visible"/>
																				</clipPath>
																				<g clip-path="url(#SVGID_59_)">
																					<g>
																						<g>
																							<path id="SVGID_41_" fill="#FFFFFF" d="M15.922,613.406c-0.506-0.043-1.126-0.117-1.522-0.182
																								c-5.717-0.948-10.424-4.886-12.316-10.302c-0.36-1.03-0.619-2.177-0.766-3.384
																								c-0.08-0.656-0.08-2.653,0-3.309c0.436-3.6,1.924-6.705,4.419-9.223c2.563-2.587,5.825-4.151,9.584-4.593
																								c0.665-0.079,2.688-0.079,3.353,0c3.759,0.443,7.021,2.006,9.584,4.593c2.495,2.518,3.983,5.624,4.419,9.223
																								c0.08,0.656,0.08,2.653,0,3.309c-0.436,3.6-1.924,6.705-4.419,9.223c-2.558,2.581-5.833,4.152-9.569,4.591
																								C18.297,613.398,16.294,613.437,15.922,613.406z M18.968,600.797v-4.857h-1.969h-1.97v4.857v4.857h1.969
																								h1.969L18.968,600.797L18.968,600.797z M17.475,593.919c0.669-0.157,1.238-0.718,1.416-1.393
																								c0.062-0.235,0.062-0.706,0-0.941c-0.177-0.675-0.731-1.222-1.416-1.397
																								c-0.104-0.027-0.312-0.047-0.477-0.047c-0.556,0-0.978,0.172-1.372,0.561s-0.568,0.804-0.568,1.354
																								c0,0.519,0.171,0.949,0.526,1.317C16.083,593.889,16.765,594.086,17.475,593.919z"/>
																						</g>
																						<g>
																							<defs>
																								<path id="SVGID_60_" d="M15.922,613.406c-0.506-0.043-1.126-0.117-1.522-0.182
																									c-5.717-0.948-10.424-4.886-12.316-10.302c-0.36-1.03-0.619-2.177-0.766-3.384
																									c-0.08-0.656-0.08-2.653,0-3.309c0.436-3.6,1.924-6.705,4.419-9.223c2.563-2.587,5.825-4.151,9.584-4.593
																									c0.665-0.079,2.688-0.079,3.353,0c3.759,0.443,7.021,2.006,9.584,4.593
																									c2.495,2.518,3.983,5.624,4.419,9.223c0.08,0.656,0.08,2.653,0,3.309c-0.436,3.6-1.924,6.705-4.419,9.223
																									c-2.558,2.581-5.833,4.152-9.569,4.591C18.297,613.398,16.294,613.437,15.922,613.406z M18.968,600.797
																									v-4.857h-1.969h-1.97v4.857v4.857h1.969h1.969L18.968,600.797L18.968,600.797z M17.475,593.919
																									c0.669-0.157,1.238-0.718,1.416-1.393c0.062-0.235,0.062-0.706,0-0.941
																									c-0.177-0.675-0.731-1.222-1.416-1.397c-0.104-0.027-0.312-0.047-0.477-0.047
																									c-0.556,0-0.978,0.172-1.372,0.561s-0.568,0.804-0.568,1.354c0,0.519,0.171,0.949,0.526,1.317
																									C16.083,593.889,16.765,594.086,17.475,593.919z"/>
																							</defs>
																							<clipPath id="SVGID_61_">
																								<use xlink:href="#SVGID_60_"  overflow="visible"/>
																							</clipPath>
																							<g clip-path="url(#SVGID_61_)">
																								<g>
																									<g>
																										<rect id="SVGID_43_" x="-72.809" y="-245.358" fill="#FFFFFF" width="694.389" height="1235.086"/>
																									</g>
																									<g>
																										<defs>
																											<rect id="SVGID_62_" x="-72.809" y="-245.358" width="694.389" height="1235.086"/>
																										</defs>
																										<clipPath id="SVGID_63_">
																											<use xlink:href="#SVGID_62_"  overflow="visible"/>
																										</clipPath>
																										<rect x="-8" y="573.095" clip-path="url(#SVGID_63_)" fill="#FFFFFF" width="49.996" height="49.58"/>
																									</g>
																								</g>
																								<g>
																									<defs>
																										<path id="SVGID_64_" d="M15.922,613.406c-0.506-0.043-1.126-0.117-1.522-0.182
																											c-5.717-0.948-10.424-4.886-12.316-10.302c-0.36-1.03-0.619-2.177-0.766-3.384
																											c-0.08-0.656-0.08-2.653,0-3.309c0.436-3.6,1.924-6.705,4.419-9.223c2.563-2.587,5.825-4.151,9.584-4.593
																											c0.665-0.079,2.688-0.079,3.353,0c3.759,0.443,7.021,2.006,9.584,4.593
																											c2.495,2.518,3.983,5.624,4.419,9.223c0.08,0.656,0.08,2.653,0,3.309c-0.436,3.6-1.924,6.705-4.419,9.223
																											c-2.558,2.581-5.833,4.152-9.569,4.591C18.297,613.398,16.294,613.437,15.922,613.406z M18.968,600.797
																											v-4.857h-1.969h-1.97v4.857v4.857h1.969h1.969L18.968,600.797L18.968,600.797z M17.475,593.919
																											c0.669-0.157,1.238-0.718,1.416-1.393c0.062-0.235,0.062-0.706,0-0.941
																											c-0.177-0.675-0.731-1.222-1.416-1.397c-0.104-0.027-0.312-0.047-0.477-0.047
																											c-0.556,0-0.978,0.172-1.372,0.561s-0.568,0.804-0.568,1.354c0,0.519,0.171,0.949,0.526,1.317
																											C16.083,593.889,16.765,594.086,17.475,593.919z"/>
																									</defs>
																									<clipPath id="SVGID_65_">
																										<use xlink:href="#SVGID_64_"  overflow="visible"/>
																									</clipPath>
																									<g clip-path="url(#SVGID_65_)">
																										<g>
																											<g>
																												<path id="SVGID_45_" fill="#FFFFFF" d="M29.427,661.365l-7.153-1.217l-3.784-6.334
																													c-0.718-1.211-1.944-1.249-2.737-0.086l-4.205,6.128l-6.888,0.731c-1.401,0.144-1.95,1.241-1.226,2.448
																													l4.224,7.103l-0.973,7.221c-0.193,1.395,0.742,2.189,2.087,1.772l7.776-2.379l7.611,2.864
																													c1.317,0.5,2.3-0.233,2.195-1.637l-0.518-7.269l4.662-6.824
																													C31.295,662.726,30.816,661.597,29.427,661.365"/>
																											</g>
																											<g>
																												<defs>
																													<path id="SVGID_66_" d="M29.427,661.365l-7.153-1.217l-3.784-6.334
																														c-0.718-1.211-1.944-1.249-2.737-0.086l-4.205,6.128l-6.888,0.731
																														c-1.401,0.144-1.95,1.241-1.226,2.448l4.224,7.103l-0.973,7.221c-0.193,1.395,0.742,2.189,2.087,1.772
																														l7.776-2.379l7.611,2.864c1.317,0.5,2.3-0.233,2.195-1.637l-0.518-7.269l4.662-6.824
																														C31.295,662.726,30.816,661.597,29.427,661.365"/>
																												</defs>
																												<clipPath id="SVGID_67_">
																													<use xlink:href="#SVGID_66_"  overflow="visible"/>
																												</clipPath>
																											</g>
																										</g>
																									</g>
																								</g>
																							</g>
																						</g>
																					</g>
																				</g>
																			</g>
																		</g>
																	</g>
																</g>
															</g>
														</g>
													</g>
												</g>
											</g>
										</g>
									</g>
								</g>
							</g>
						</g>
					</g>
				</g>
			</g>
		</g>
	</g>
</g>
<path fill="none" d="M29.608,661.365l-7.153-1.217l-3.784-6.334c-0.718-1.211-1.944-1.249-2.737-0.086l-4.205,6.128l-6.888,0.731
	c-1.401,0.144-1.95,1.241-1.226,2.448l4.224,7.103l-0.973,7.221c-0.193,1.395,0.742,2.189,2.087,1.772l7.776-2.379l7.611,2.864
	c1.317,0.5,2.3-0.233,2.195-1.637l-0.518-7.269l4.662-6.824C31.476,662.726,30.997,661.597,29.608,661.365"/>
<g>
	<defs>
		<path id="SVGID_68_" d="M8.445,449.256c0,0-4.227,0.832-3.866,6.268c0.327,4.927,0.57,7.773-0.898,9.791
			c-0.18,0.204-0.35,0.403-0.51,0.599c0,0,0,0,0,0h0c-2.782,3.395-2.687,5.544-2.687,5.544c1.053,1.646,1.834,1.112,1.834,1.112
			c-0.703-1.931,0.573-4.376,2.582-6.775c2.192-1.414,3.588-0.858,8.683,0.347c5.313,1.258,6.838-2.762,6.838-2.762
			c6.65,0.814,7.48-3.782,7.48-3.782c3.269-2.805,3.084-5.707,2.683-7.293c2.437-1.36,2.613-4.202,2.391-6.64
			c-0.29-3.19,0.542-3.481,0.542-3.481s-0.708,0.014-3.667-1.416c-5.832-2.819-8.054,0.439-8.054,0.439
			c-0.047,0.055-0.092,0.113-0.137,0.172c-1.244-0.667-4.424-2.014-8.234,1.146C13.426,442.526,8.745,442.58,8.445,449.256
			 M12.881,444.113c-0.203,1.206-0.221,2.312,0.044,3.546c0.246,1.144,0.655,2.255,0.929,3.394c0.232,0.968,0.434,2.064,0.185,3.018
			c-0.022,0.085-0.051,0.172-0.082,0.261c0.112-0.091,0.223-0.184,0.336-0.274c1.569-1.267,3.193-2.467,4.866-3.595
			c0.224-0.338,0.422-0.699,0.573-1.11c0.404-1.1,0.384-2.265,0.515-3.43c0.296-2.619,2.624-4.444,2.599-4.417
			c-0.65,0.716-1.341,1.649-1.765,2.722c-0.432,1.092-0.487,2.219-0.582,3.396c-0.061,0.754-0.225,1.559-0.522,2.295
			c0.056-0.036,0.111-0.073,0.166-0.109c2.011-1.307,4.19-2.36,5.92-4.038c3.304-3.205,6.284-3.159,6.082-3.12
			c-2.998,0.569-4.759,2.888-7.018,4.668c-1.632,1.286-3.43,2.36-5.188,3.485c0.924-0.101,1.89-0.019,2.724,0.15
			c2.357,0.476,4.486,1.317,6.82,0.626c0.186-0.055-2.413,1.143-5.514,0.332c-1.119-0.293-2.277-0.537-3.417-0.466
			c-1.145,0.071-2.014,0.556-3.006,0.977c-1.322,0.963-2.612,1.973-3.866,3.025c1.042,0.027,2.233,0.559,2.945,1.104
			c2.069,1.586,3.661,4.473,6.548,3.8c0.175-0.041-2.311,1.062-4.847-1.355c-0.904-0.861-1.765-1.85-2.88-2.426
			c-1.25-0.645-2.313-0.427-3.371,0.282c-0.014,0.01-0.03,0.015-0.045,0.02c-0.397,0.354-0.792,0.711-1.182,1.074
			c-0.47,0.438-0.931,0.884-1.389,1.334c0.409-0.07,0.825-0.094,1.218-0.076c1.891,0.084,3.518,1.425,5.427,1.238
			c0.217-0.021-1.583,0.48-4.283-0.439c-1.358-0.462-2.479-0.049-3.576,0.491c-1.369,0.905-3.861,3.706-3.808,3.63
			c0.784-1.128,3.128-4.06,3.524-4.304c0.053-0.056,0.107-0.11,0.16-0.166c0.456-0.736,0.806-1.556,0.857-2.449
			c0.071-1.232-0.357-2.489-1.086-3.478c-1.886-2.555,0.654-4.159,0.614-3.963c0,0-1.168,0.91-0.891,2.074
			c0.285,1.199,1.119,2.209,1.525,3.373c0.438,1.256,0.365,2.407-0.048,3.455c1.013-1.005,2.068-1.968,3.145-2.895
			c0.469-0.76,1.154-1.377,1.257-2.357c0.128-1.224-0.193-2.599-0.647-3.753C11.716,446.79,12.908,443.956,12.881,444.113"/>
	</defs>
	<clipPath id="SVGID_69_">
		<use xlink:href="#SVGID_68_"  overflow="visible"/>
	</clipPath>
	<g clip-path="url(#SVGID_69_)">
		<defs>
			<rect id="SVGID_70_" x="-93.478" y="389.704" width="275.276" height="489.625"/>
		</defs>
		<clipPath id="SVGID_71_">
			<use xlink:href="#SVGID_70_"  overflow="visible"/>
		</clipPath>
		<rect x="-3.187" y="435.951" clip-path="url(#SVGID_71_)" fill="#DC433E" width="40.374" height="40.374"/>
	</g>
</g>
<g>
	<defs>
		<path id="SVGID_72_" d="M23.696,387.917c2.851,2.837,5.691,5.684,8.52,8.541c0.002,0.002,0.003,0.003,0.005,0.005
			c1.037,1.036,1.038,2.716,0.003,3.754c-2.774,2.802-5.562,5.59-8.364,8.364c-1.091,1.08-2.789,1.026-3.864-0.063
			c-1.04-1.052-1.05-2.726,0.012-3.812c1.086-1.115,2.195-2.207,3.299-3.302c0.081-0.082,0.206-0.125,0.313-0.187
			c-0.035-0.048-0.067-0.099-0.096-0.152h-0.383c-3.723,0-7.446,0.013-11.169,0.013c-1.346-0.001-2.486-0.86-2.771-2.093
			c-0.406-1.757,0.882-3.36,2.719-3.363c3.689-0.008,7.381,0.007,11.069,0.007h0.598c-0.123-0.125-0.197-0.235-0.278-0.316
			c-1.159-1.168-2.32-2.34-3.471-3.514c-0.787-0.784-1.012-1.971-0.567-2.989c0.445-1.016,1.453-1.668,2.563-1.658
			C22.553,387.161,23.185,387.406,23.696,387.917z M10.594,408.39c1.951,0.109,3.15,2.279,2.216,3.998
			c-0.464,0.854-1.188,1.414-2.173,1.451c-1.197,0.045-2.408,0.069-3.595-0.047c-3.023-0.294-5.554-2.799-5.972-5.806
			c-0.015-0.109-0.047-0.214-0.071-0.322V388.07c0.055-0.281,0.104-0.564,0.166-0.844c0.69-3.047,3.401-5.262,6.542-5.338
			c0.9-0.017,1.8-0.015,2.7,0c1.506,0.027,2.697,1.213,2.717,2.687c0.029,1.496-1.152,2.737-2.647,2.782
			c-0.799,0.029-1.6,0.004-2.4,0.01c-1.046,0.008-1.601,0.569-1.601,1.615v17.754c0,1.069,0.555,1.627,1.618,1.632
			C8.928,408.373,9.764,408.344,10.594,408.39z"/>
	</defs>
	<use xlink:href="#SVGID_72_"  overflow="visible" fill-rule="evenodd" clip-rule="evenodd" fill="#FFFFFF"/>
	<clipPath id="SVGID_73_">
		<use xlink:href="#SVGID_72_"  overflow="visible"/>
	</clipPath>
	<g display="none" clip-path="url(#SVGID_73_)">
		<defs>
			<rect id="SVGID_74_" x="-81" y="-868.123" width="750" height="1334"/>
		</defs>
		<clipPath id="SVGID_75_" display="inline">
			<use xlink:href="#SVGID_74_"  display="none" overflow="visible"/>
		</clipPath>
		<rect x="-9" y="371.877" clip-path="url(#SVGID_75_)" fill="#DC433E" width="52" height="52"/>
	</g>
</g>
</svg>
