<?xml version="1.0" encoding="utf-8"?>
<!-- Generator: Adobe Illustrator 17.0.0, SVG Export Plug-In . SVG Version: 6.00 Build 0)  -->
<!DOCTYPE svg PUBLIC "-//W3C//DTD SVG 1.1//EN" "http://www.w3.org/Graphics/SVG/1.1/DTD/svg11.dtd">
<svg version="1.1" id="Layer_1" xmlns="http://www.w3.org/2000/svg" xmlns:xlink="http://www.w3.org/1999/xlink" x="0px" y="0px"
	 width="36px" height="766.333px" viewBox="0 0 36 766.333" enable-background="new 0 0 36 766.333" xml:space="preserve">
<g>
	<defs>
		<path id="SVGID_1_" d="M28.036,25.93c-3.439,0-5-2.946-5.136-3.201c-0.135-0.255-0.203-1.867,0.249-2.274
			c2.67-2.671,3.866-5.618,3.982-6.969c0.276-3.197,0.206-4.615,0-6.698c-0.373-3.776-4.781-6.777-9.119-6.786V0
			C18.008,0,18.003,0.001,18,0.001S17.992,0,17.989,0v0.002c-4.338,0.009-8.746,3.01-9.119,6.786c-0.206,2.083-0.276,3.501,0,6.698
			c0.117,1.352,1.312,4.299,3.983,6.969c0.452,0.407,0.385,2.019,0.249,2.274c-0.136,0.255-1.698,3.201-5.136,3.201
			C4.525,25.93,0,26.111,0,29.822c0,3.709,4.973,5.201,17.989,5.204H18h0.011C31.027,35.023,36,33.531,36,29.822
			C36.001,26.11,31.475,25.93,28.036,25.93"/>
	</defs>
	<clipPath id="SVGID_2_">
		<use xlink:href="#SVGID_1_"  overflow="visible"/>
	</clipPath>
	<g clip-path="url(#SVGID_2_)">
		<defs>
			<rect id="SVGID_3_" x="-80" y="-452" width="750" height="1334"/>
		</defs>
		<clipPath id="SVGID_4_">
			<use xlink:href="#SVGID_3_"  overflow="visible"/>
		</clipPath>
		<rect x="-10" y="-10" clip-path="url(#SVGID_4_)" fill="#DD433F" width="56" height="55.026"/>
	</g>
</g>
<g>
	<defs>
		<path id="SVGID_5_" d="M22.908,76.698c4.003,1.845,6.78,5.876,6.78,10.552c0,0.195-0.005,0.388-0.014,0.581h0.014v11.624
			c0,1.604,1.065,3.647,2.385,4.566l1.073,0.747c1.317,0.917,1.085,1.66-0.521,1.66H3.376c-1.605,0-1.841-0.741-0.521-1.66
			l1.073-0.747c1.318-0.917,2.385-2.963,2.385-4.566V87.831h0.014c-0.009-0.193-0.014-0.386-0.014-0.581
			c0-4.677,2.777-8.708,6.78-10.552c-0.039-0.157-0.06-0.321-0.06-0.49c0-1.124,0.908-2.034,2.034-2.034h5.866
			c1.124,0,2.034,0.913,2.034,2.034C22.968,76.377,22.947,76.541,22.908,76.698z M22.091,107.592c0,1.926-1.831,3.487-4.09,3.487
			c-2.259,0-4.091-1.561-4.091-3.487H22.091z"/>
	</defs>
	<clipPath id="SVGID_6_">
		<use xlink:href="#SVGID_5_"  overflow="visible"/>
	</clipPath>
	<g clip-path="url(#SVGID_6_)">
		<defs>
			<rect id="SVGID_7_" x="-80" y="-489.827" width="750" height="1334"/>
		</defs>
		<clipPath id="SVGID_8_">
			<use xlink:href="#SVGID_7_"  overflow="visible"/>
		</clipPath>
		<rect x="-8" y="64.173" clip-path="url(#SVGID_8_)" fill="#DD433F" width="52" height="56.905"/>
	</g>
</g>
<g>
	<defs>
		<path id="SVGID_9_" d="M24.696,451.081c2.851,2.837,5.691,5.684,8.52,8.541c0.002,0.002,0.003,0.003,0.005,0.005
			c1.037,1.036,1.038,2.716,0.003,3.754c-2.774,2.802-5.562,5.59-8.364,8.364c-1.091,1.08-2.789,1.026-3.864-0.063
			c-1.04-1.052-1.05-2.726,0.012-3.812c1.086-1.115,2.195-2.207,3.299-3.302c0.081-0.082,0.206-0.125,0.313-0.188
			c-0.035-0.048-0.067-0.099-0.096-0.152h-0.383c-3.723,0-7.446,0.013-11.169,0.013c-1.346-0.001-2.486-0.86-2.771-2.093
			c-0.406-1.757,0.882-3.36,2.719-3.363c3.689-0.008,7.381,0.007,11.069,0.007h0.598c-0.123-0.125-0.197-0.235-0.278-0.316
			c-1.159-1.168-2.32-2.34-3.471-3.514c-0.787-0.784-1.012-1.971-0.567-2.989c0.445-1.016,1.453-1.668,2.563-1.658
			C23.553,450.325,24.185,450.569,24.696,451.081z M11.594,471.553c1.951,0.109,3.15,2.279,2.216,3.998
			c-0.464,0.854-1.188,1.414-2.173,1.451c-1.197,0.045-2.408,0.069-3.595-0.047c-3.023-0.294-5.554-2.799-5.972-5.806
			c-0.015-0.109-0.047-0.214-0.071-0.322v-19.595c0.055-0.281,0.104-0.564,0.166-0.844c0.69-3.047,3.401-5.262,6.542-5.338
			c0.9-0.017,1.8-0.015,2.7,0c1.506,0.027,2.697,1.213,2.717,2.687c0.029,1.496-1.152,2.737-2.647,2.782
			c-0.799,0.029-1.6,0.004-2.4,0.01c-1.046,0.008-1.601,0.569-1.601,1.615V469.9c0,1.069,0.555,1.627,1.618,1.632
			C9.928,471.536,10.764,471.507,11.594,471.553z"/>
	</defs>
	<clipPath id="SVGID_10_">
		<use xlink:href="#SVGID_9_"  overflow="visible"/>
	</clipPath>
	<g clip-path="url(#SVGID_10_)">
		<defs>
			<rect id="SVGID_11_" x="-80" y="-804.96" width="750" height="1334"/>
		</defs>
		<clipPath id="SVGID_12_">
			<use xlink:href="#SVGID_11_"  overflow="visible"/>
		</clipPath>
		<rect x="-8" y="435.04" clip-path="url(#SVGID_12_)" fill="#DD433F" width="52" height="52"/>
	</g>
</g>
<g>
	<defs>
		<path id="SVGID_13_" d="M11.445,171.11c-1.046-0.92-1.106-2.459-0.148-3.467l9.711-10.223c0.959-1.008,2.552-1.081,3.597-0.161
			l0.137,0.121c1.05,0.922,1.113,2.459,0.157,3.467l-9.713,10.219c-0.959,1.009-2.555,1.086-3.603,0.164L11.445,171.11z
			 M30.867,150.78c3.564,3.14,4.178,8.088,1.377,11.037l-3.02,3.176c-2.058,2.166-5.404,2.653-8.429,1.533l4.808-5.06
			c0.032-0.035,0.068-0.071,0.103-0.106l2.534-2.666c1.274-1.343,1.284-3.337-0.324-4.755c-1.633-1.438-3.694-1.253-4.971,0.089
			l-2.6,2.737c-0.002,0.001-0.005,0.004-0.005,0.004c-0.009,0.012-0.021,0.02-0.032,0.032l-4.807,5.06
			c-1.428-2.8-1.221-6.052,0.838-8.22l3.019-3.177C22.159,147.518,27.333,147.667,30.867,150.78z M15.889,171.687l4.604-4.843
			c1.43,2.806,1.222,6.052-0.834,8.212l-3.019,3.179c-2.801,2.947-7.963,2.783-11.498-0.331l-0.028-0.024
			c-3.536-3.115-4.161-8.048-1.359-10.997l3.019-3.179c2.06-2.166,5.405-2.654,8.43-1.534l-4.608,4.853
			c-0.046,0.045-0.087,0.092-0.128,0.138c-0.037,0.036-0.072,0.072-0.107,0.107l-2.601,2.736c-1.274,1.343-1.252,3.302,0.356,4.718
			l0.026,0.023c1.609,1.418,3.639,1.266,4.913-0.075l2.6-2.736c0.029-0.031,0.054-0.063,0.081-0.092
			C15.787,171.794,15.837,171.741,15.889,171.687z"/>
	</defs>
	<clipPath id="SVGID_14_">
		<use xlink:href="#SVGID_13_"  overflow="visible"/>
	</clipPath>
	<g clip-path="url(#SVGID_14_)">
		<defs>
			<rect id="SVGID_15_" x="-80" y="-525.653" width="750" height="1334"/>
		</defs>
		<clipPath id="SVGID_16_">
			<use xlink:href="#SVGID_15_"  overflow="visible"/>
		</clipPath>
		<rect x="-8" y="138.347" clip-path="url(#SVGID_16_)" fill="#DD433F" width="52" height="52"/>
	</g>
</g>
<g>
	<defs>
		<path id="SVGID_17_" d="M18.116,254.288c-3.332,0-6.423-1.028-8.978-2.781l-5.842,0.718c-0.97,0.123-1.514-0.533-1.214-1.464
			l1.732-5.437c-1.014-2.092-1.583-4.44-1.583-6.92c0-8.773,7.112-15.884,15.884-15.884c8.773,0,15.884,7.112,15.884,15.884
			S26.888,254.288,18.116,254.288 M26.137,236.288l-4.108-1.467l-1.579-4.146c-0.299-0.792-1.021-0.943-1.612-0.337l-3.13,3.189
			l-4.155-0.287c-0.844-0.061-1.284,0.531-0.982,1.322l1.759,4.647l-1.33,4.174c-0.26,0.806,0.211,1.374,1.051,1.267l4.853-0.597
			l4.208,2.49c0.727,0.433,1.386,0.102,1.471-0.74l0.452-4.358l3.473-3.554C27.101,237.289,26.935,236.57,26.137,236.288"/>
	</defs>
	<clipPath id="SVGID_18_">
		<use xlink:href="#SVGID_17_"  overflow="visible"/>
	</clipPath>
	<g clip-path="url(#SVGID_18_)">
		<defs>
			<rect id="SVGID_19_" x="-80" y="-561.48" width="750" height="1334"/>
		</defs>
		<clipPath id="SVGID_20_">
			<use xlink:href="#SVGID_19_"  overflow="visible"/>
		</clipPath>
		<rect x="-8" y="212.52" clip-path="url(#SVGID_20_)" fill="#DD433F" width="52" height="51.768"/>
	</g>
</g>
<g>
	<defs>
		<path id="SVGID_21_" d="M16.837,330.232c-0.547-0.046-1.216-0.126-1.644-0.197c-6.175-1.024-11.259-5.277-13.302-11.127
			c-0.389-1.113-0.669-2.351-0.827-3.655c-0.086-0.709-0.086-2.865,0-3.574c0.471-3.888,2.078-7.242,4.773-9.962
			c2.768-2.794,6.292-4.483,10.352-4.961c0.718-0.085,2.903-0.085,3.622,0c4.06,0.478,7.583,2.167,10.352,4.961
			c2.695,2.72,4.302,6.074,4.773,9.962c0.086,0.709,0.086,2.865,0,3.574c-0.471,3.888-2.078,7.242-4.773,9.962
			c-2.763,2.788-6.3,4.485-10.335,4.959C19.403,330.224,17.239,330.266,16.837,330.232z M20.127,316.614v-5.246H18h-2.127v5.246
			v5.246H18h2.127V316.614z M18.515,309.185c0.723-0.17,1.337-0.775,1.529-1.505c0.067-0.254,0.067-0.763,0-1.016
			c-0.191-0.729-0.79-1.32-1.529-1.509c-0.112-0.029-0.337-0.051-0.515-0.051c-0.601,0-1.056,0.186-1.482,0.606
			c-0.426,0.42-0.614,0.868-0.614,1.462c0,0.561,0.185,1.025,0.568,1.422C17.011,309.152,17.748,309.365,18.515,309.185z"/>
	</defs>
	<clipPath id="SVGID_22_">
		<use xlink:href="#SVGID_21_"  overflow="visible"/>
	</clipPath>
	<g clip-path="url(#SVGID_22_)">
		<defs>
			<rect id="SVGID_23_" x="-79" y="-597.307" width="750" height="1334"/>
		</defs>
		<clipPath id="SVGID_24_">
			<use xlink:href="#SVGID_23_"  overflow="visible"/>
		</clipPath>
		<rect x="-9" y="286.693" clip-path="url(#SVGID_24_)" fill="#DD433F" width="54" height="53.551"/>
	</g>
</g>
<g>
	<defs>
		<path id="SVGID_25_" d="M31.424,380.031l-7.726-1.314l-4.087-6.841c-0.776-1.308-2.1-1.349-2.956-0.093l-4.542,6.619l-7.44,0.789
			c-1.513,0.156-2.106,1.34-1.324,2.644l4.562,7.672l-1.051,7.799c-0.208,1.507,0.801,2.364,2.254,1.914l8.399-2.57l8.22,3.093
			c1.422,0.54,2.484-0.252,2.371-1.768l-0.559-7.851l5.035-7.37C33.442,381.5,32.924,380.282,31.424,380.031"/>
	</defs>
	<clipPath id="SVGID_26_">
		<use xlink:href="#SVGID_25_"  overflow="visible"/>
	</clipPath>
	<g clip-path="url(#SVGID_26_)">
		<defs>
			<rect id="SVGID_27_" x="-79.22" y="-633.133" width="750" height="1334"/>
		</defs>
		<clipPath id="SVGID_28_">
			<use xlink:href="#SVGID_27_"  overflow="visible"/>
		</clipPath>
		
			<rect x="-7.22" y="360.867" transform="matrix(-0.9986 -0.0523 0.0523 -0.9986 15.3685 771.0839)" clip-path="url(#SVGID_28_)" fill="#DD433F" width="50" height="48.948"/>
	</g>
</g>
<g>
	<defs>
		<path id="SVGID_29_" d="M9.592,531.652c0,0-4.402,0.867-4.026,6.527c0.341,5.131,0.593,8.096-0.935,10.197
			c-0.187,0.212-0.365,0.42-0.531,0.624c0,0,0,0,0,0.001l0,0c-2.897,3.536-2.799,5.774-2.799,5.774
			c1.097,1.714,1.91,1.159,1.91,1.159c-0.732-2.011,0.597-4.557,2.689-7.057c2.283-1.473,3.737-0.894,9.043,0.362
			c5.534,1.31,7.121-2.876,7.121-2.876c6.925,0.847,7.79-3.938,7.79-3.938c3.405-2.921,3.212-5.944,2.794-7.595
			c2.538-1.417,2.721-4.376,2.491-6.915c-0.302-3.322,0.565-3.626,0.565-3.626s-0.737,0.014-3.819-1.475
			c-6.074-2.936-8.388,0.457-8.388,0.457c-0.048,0.057-0.096,0.117-0.143,0.179c-1.295-0.695-4.608-2.097-8.575,1.193
			C14.78,524.643,9.904,524.699,9.592,531.652 M14.213,526.295c-0.212,1.256-0.231,2.408,0.046,3.693
			c0.256,1.192,0.682,2.349,0.967,3.535c0.242,1.008,0.452,2.15,0.193,3.143c-0.023,0.089-0.053,0.18-0.085,0.271
			c0.116-0.095,0.232-0.191,0.349-0.285c1.634-1.319,3.325-2.569,5.067-3.744c0.233-0.352,0.439-0.728,0.597-1.156
			c0.421-1.146,0.4-2.359,0.537-3.572c0.308-2.728,2.732-4.628,2.706-4.6c-0.677,0.745-1.396,1.718-1.838,2.834
			c-0.45,1.138-0.508,2.311-0.606,3.537c-0.063,0.785-0.235,1.624-0.544,2.39c0.058-0.038,0.115-0.076,0.173-0.114
			c2.094-1.362,4.364-2.458,6.166-4.206c3.441-3.337,6.544-3.29,6.334-3.25c-3.122,0.593-4.956,3.007-7.31,4.862
			c-1.7,1.339-3.572,2.458-5.403,3.63c0.963-0.105,1.969-0.019,2.837,0.156c2.454,0.496,4.672,1.371,7.103,0.652
			c0.194-0.058-2.513,1.19-5.742,0.346c-1.165-0.305-2.371-0.56-3.558-0.486c-1.193,0.074-2.098,0.579-3.13,1.018
			c-1.377,1.003-2.72,2.055-4.027,3.15c1.085,0.028,2.326,0.582,3.067,1.149c2.155,1.652,3.813,4.659,6.82,3.958
			c0.183-0.043-2.406,1.106-5.048-1.411c-0.942-0.897-1.839-1.927-3-2.526c-1.302-0.672-2.409-0.445-3.51,0.294
			c-0.015,0.01-0.031,0.016-0.047,0.021c-0.414,0.368-0.825,0.74-1.231,1.118c-0.489,0.456-0.97,0.92-1.447,1.389
			c0.426-0.073,0.859-0.097,1.269-0.08c1.97,0.088,3.664,1.484,5.652,1.289c0.226-0.022-1.648,0.5-4.461-0.457
			c-1.414-0.481-2.582-0.051-3.725,0.511c-1.426,0.942-4.021,3.86-3.966,3.781c0.816-1.174,3.258-4.228,3.67-4.482
			c0.055-0.059,0.111-0.115,0.167-0.173c0.475-0.767,0.839-1.621,0.892-2.551c0.074-1.283-0.372-2.592-1.132-3.622
			c-1.964-2.661,0.681-4.332,0.639-4.127c0,0-1.217,0.947-0.928,2.16c0.297,1.249,1.165,2.301,1.588,3.513
			c0.456,1.309,0.38,2.506-0.05,3.598c1.055-1.046,2.153-2.049,3.276-3.015c0.488-0.792,1.202-1.435,1.309-2.455
			c0.133-1.275-0.201-2.707-0.674-3.909C12.999,529.084,14.24,526.132,14.213,526.295"/>
	</defs>
	<clipPath id="SVGID_30_">
		<use xlink:href="#SVGID_29_"  overflow="visible"/>
	</clipPath>
	<g clip-path="url(#SVGID_30_)">
		<defs>
			<rect id="SVGID_31_" x="-96.557" y="469.63" width="286.692" height="509.93"/>
		</defs>
		<clipPath id="SVGID_32_">
			<use xlink:href="#SVGID_31_"  overflow="visible"/>
		</clipPath>
		<rect x="-2.522" y="517.794" clip-path="url(#SVGID_32_)" fill="#DD433F" width="42.048" height="42.048"/>
	</g>
</g>
<g>
	<defs>
		<path id="SVGID_33_" d="M28.036,618.263c-3.439,0-5-2.946-5.136-3.201c-0.135-0.255-0.203-1.867,0.249-2.274
			c2.67-2.671,3.866-5.618,3.982-6.969c0.276-3.197,0.206-4.615,0-6.698c-0.373-3.776-4.781-6.777-9.119-6.786v-0.002
			c-0.003,0-0.008,0.001-0.011,0.001s-0.008-0.001-0.011-0.001v0.002c-4.338,0.009-8.746,3.01-9.119,6.786
			c-0.206,2.083-0.276,3.501,0,6.698c0.117,1.352,1.312,4.299,3.983,6.969c0.452,0.407,0.385,2.019,0.249,2.274
			c-0.136,0.255-1.698,3.201-5.136,3.201c-3.44,0-7.965,0.182-7.965,3.893c0,3.709,4.973,5.201,17.989,5.204H18h0.011
			C31.027,627.357,36,625.864,36,622.156C36.001,618.444,31.475,618.263,28.036,618.263"/>
	</defs>
	<clipPath id="SVGID_34_">
		<use xlink:href="#SVGID_33_"  overflow="visible"/>
	</clipPath>
	<g clip-path="url(#SVGID_34_)">
		<defs>
			<rect id="SVGID_35_" x="-80" y="140.333" width="750" height="1334"/>
		</defs>
		<clipPath id="SVGID_36_">
			<use xlink:href="#SVGID_35_"  overflow="visible"/>
		</clipPath>
		<rect x="-10" y="582.333" clip-path="url(#SVGID_36_)" fill="#969696" width="56" height="55.026"/>
	</g>
</g>
<g>
	<defs>
		<path id="SVGID_37_" d="M23.908,667.858c4.003,1.845,6.78,5.876,6.78,10.552c0,0.195-0.005,0.388-0.014,0.581h0.014v11.624
			c0,1.604,1.065,3.647,2.385,4.566l1.073,0.747c1.317,0.917,1.085,1.66-0.521,1.66H4.376c-1.605,0-1.841-0.741-0.521-1.66
			l1.073-0.747c1.318-0.917,2.385-2.963,2.385-4.566v-11.624h0.014c-0.009-0.193-0.014-0.386-0.014-0.581
			c0-4.677,2.777-8.708,6.78-10.552c-0.039-0.157-0.06-0.321-0.06-0.49c0-1.124,0.908-2.034,2.034-2.034h5.866
			c1.124,0,2.034,0.913,2.034,2.034C23.968,667.537,23.947,667.701,23.908,667.858z M23.091,698.752c0,1.926-1.831,3.487-4.09,3.487
			c-2.259,0-4.091-1.561-4.091-3.487H23.091z"/>
	</defs>
	<clipPath id="SVGID_38_">
		<use xlink:href="#SVGID_37_"  overflow="visible"/>
	</clipPath>
	<g clip-path="url(#SVGID_38_)">
		<defs>
			<rect id="SVGID_39_" x="-79" y="101.333" width="750" height="1334"/>
		</defs>
		<clipPath id="SVGID_40_">
			<use xlink:href="#SVGID_39_"  overflow="visible"/>
		</clipPath>
		<rect x="-7" y="655.333" clip-path="url(#SVGID_40_)" fill="#969696" width="52" height="56.905"/>
	</g>
</g>
<g>
	<defs>
		<path id="SVGID_41_" d="M12.445,757.097c-1.046-0.92-1.106-2.459-0.148-3.467l9.711-10.223c0.959-1.008,2.552-1.081,3.597-0.161
			l0.137,0.121c1.05,0.922,1.113,2.459,0.157,3.467l-9.713,10.219c-0.959,1.009-2.555,1.086-3.603,0.164L12.445,757.097z
			 M31.867,736.767c3.564,3.14,4.178,8.088,1.377,11.037l-3.02,3.176c-2.058,2.166-5.404,2.653-8.429,1.533l4.808-5.06
			c0.032-0.035,0.068-0.071,0.103-0.106l2.534-2.666c1.274-1.343,1.284-3.337-0.324-4.755c-1.633-1.438-3.694-1.253-4.971,0.089
			l-2.6,2.737c-0.002,0.001-0.005,0.004-0.005,0.004c-0.009,0.012-0.021,0.02-0.032,0.032l-4.807,5.06
			c-1.428-2.8-1.221-6.052,0.838-8.22l3.019-3.177C23.159,733.505,28.333,733.654,31.867,736.767z M16.889,757.673l4.604-4.843
			c1.43,2.806,1.222,6.052-0.834,8.212l-3.019,3.179c-2.801,2.947-7.963,2.783-11.498-0.331l-0.028-0.024
			c-3.536-3.115-4.161-8.048-1.359-10.997l3.019-3.179c2.06-2.166,5.405-2.654,8.43-1.534l-4.608,4.853
			c-0.046,0.045-0.087,0.092-0.128,0.138c-0.037,0.036-0.072,0.072-0.107,0.107l-2.601,2.736c-1.274,1.343-1.252,3.302,0.356,4.718
			l0.026,0.023c1.609,1.418,3.639,1.266,4.913-0.075l2.6-2.736c0.029-0.031,0.054-0.063,0.081-0.092
			C16.787,757.781,16.837,757.728,16.889,757.673z"/>
	</defs>
	<clipPath id="SVGID_42_">
		<use xlink:href="#SVGID_41_"  overflow="visible"/>
	</clipPath>
	<g clip-path="url(#SVGID_42_)">
		<defs>
			<rect id="SVGID_43_" x="-79" y="60.333" width="750" height="1334"/>
		</defs>
		<clipPath id="SVGID_44_">
			<use xlink:href="#SVGID_43_"  overflow="visible"/>
		</clipPath>
		<rect x="-7" y="724.333" clip-path="url(#SVGID_44_)" fill="#969696" width="52" height="52"/>
	</g>
</g>
</svg>
