<?xml version="1.0" encoding="utf-8"?>
<!-- Generator: Adobe Illustrator 17.0.0, SVG Export Plug-In . SVG Version: 6.00 Build 0)  -->
<!DOCTYPE svg PUBLIC "-//W3C//DTD SVG 1.1//EN" "http://www.w3.org/Graphics/SVG/1.1/DTD/svg11.dtd">
<svg version="1.1" id="Layer_1" xmlns="http://www.w3.org/2000/svg" xmlns:xlink="http://www.w3.org/1999/xlink" x="0px" y="0px"
	 width="60px" height="146.459px" viewBox="0 0 60 146.459" enable-background="new 0 0 60 146.459" xml:space="preserve">
<g>
	<defs>
		<path id="SVGID_1_" d="M24.697,25.468v8.893h5.152V60h10.497V34.361h7.148l0.967-8.893h-8.114v-4.024
			c0-1.233,0.127-2.142,0.45-2.662c0.451-0.778,1.353-1.168,2.771-1.168h4.765V8.788h-7.985c-1.611,0-3.156,0.193-4.959,0.908
			c-3.671,1.493-5.538,4.997-5.538,10.451v5.322H24.697z M18.5,0h23C48,0,52.15,0.023,56.069,3.941C59.975,7.848,60,11.981,60,18.5
			v23c0,6.499-0.025,10.653-3.941,14.568C52.152,59.976,48.02,60,41.501,60h-23c-6.499,0-10.65-0.022-14.568-3.941
			C0.026,52.153,0,48.02,0,41.5v-23C0,12.001,0.025,7.848,3.941,3.932C7.848,0.026,11.981,0,18.5,0z"/>
	</defs>
	<clipPath id="SVGID_2_">
		<use xlink:href="#SVGID_1_"  overflow="visible"/>
	</clipPath>
	<g clip-path="url(#SVGID_2_)">
		<defs>
			<rect id="SVGID_3_" x="-290" y="-1244" width="750" height="1334"/>
		</defs>
		<clipPath id="SVGID_4_">
			<use xlink:href="#SVGID_3_"  overflow="visible"/>
		</clipPath>
		<rect x="-10" y="-10" clip-path="url(#SVGID_4_)" fill="#677FB8" width="80" height="80"/>
	</g>
</g>
<g>
	<defs>
		<path id="SVGID_5_" d="M32.031,110.277c0,0-0.068,0.003-0.197,0.003c-1.12,0-6.865-0.176-13.535-3.559
			c-7.444-3.776-9.251-7.186-9.251-7.186s-1.155,2.033-0.65,5.807c0.507,3.775,4.061,8.632,4.061,8.632l-4.278-1.736
			c0,0,0.216,2.397,1.878,4.864c1.663,2.468,7.516,5.589,7.516,5.589l-5.564,0.073c0,0,0.506,1.161,2.529,3.121
			c2.023,1.96,7.659,3.703,7.659,3.703s-3.963,2.788-6.72,3.848c-2.756,1.058-7.081,1.307-7.081,1.307s6.441,4.025,16.33,3.048
			c9.89-0.978,16.697-5.621,21.967-13.357c5.27-7.736,4.769-17.786,4.769-17.786s0.577-0.665,1.977-1.955
			c1.401-1.29,1.831-1.923,1.831-1.923l-3.497,0.372l2.271-4.073c0,0-1.386,0.634-2.344,0.988c-0.958,0.355-2.244,0.709-2.244,0.709
			s-5.072-6.242-12.442-2.54C29.646,101.929,32.031,110.277,32.031,110.277z M18.5,86.458h23c6.499,0,10.65,0.023,14.568,3.942
			C59.975,94.307,60,98.44,60,104.959v23c0,6.499-0.025,10.654-3.941,14.568c-3.907,3.908-8.039,3.932-14.559,3.932h-23
			c-6.499,0-10.65-0.022-14.569-3.941C0.026,138.612,0,134.479,0,127.959v-23c0-6.499,0.025-10.652,3.941-14.568
			C7.848,86.484,11.981,86.458,18.5,86.458z"/>
	</defs>
	<clipPath id="SVGID_6_">
		<use xlink:href="#SVGID_5_"  overflow="visible"/>
	</clipPath>
	<g clip-path="url(#SVGID_6_)">
		<defs>
			<rect id="SVGID_7_" x="-390" y="-1157.542" width="750" height="1334"/>
		</defs>
		<clipPath id="SVGID_8_">
			<use xlink:href="#SVGID_7_"  overflow="visible"/>
		</clipPath>
		<rect x="-10" y="76.458" clip-path="url(#SVGID_8_)" fill="#6BCEF2" width="80" height="80.001"/>
	</g>
</g>
</svg>
