<?xml version="1.0" encoding="utf-8"?>
<!-- Generator: Adobe Illustrator 17.0.0, SVG Export Plug-In . SVG Version: 6.00 Build 0)  -->
<!DOCTYPE svg PUBLIC "-//W3C//DTD SVG 1.1//EN" "http://www.w3.org/Graphics/SVG/1.1/DTD/svg11.dtd">
<svg version="1.1" id="Layer_1" xmlns="http://www.w3.org/2000/svg" xmlns:xlink="http://www.w3.org/1999/xlink" x="0px" y="0px"
	 width="40.238px" height="845.011px" viewBox="0 0 40.238 845.011" enable-background="new 0 0 40.238 845.011"
	 xml:space="preserve">
<g>
	<path fill="none" stroke="#DD433F" stroke-width="1.807" stroke-miterlimit="10" d="M34.417,14.956l3.833-2.542l0.167,12.978
		l-2-3.25l-2,4.292V14.956z M19.914,19.752L1.821,9.091L19.74,0l18.274,9.086L19.914,19.752z M19.745,31.199L7.639,23.804v-7.528
		l12.275,7.232L31.79,16.51v7.14L19.745,31.199z"/>
</g>
<g>
	<g>
		<defs>
			<path id="SVGID_1_" d="M20.075,108.153c-3.383,0-6.119-2.786-6.119-6.169c0-3.383,2.736-6.169,6.119-6.169
				c3.383,0,6.119,2.786,6.119,6.169C26.194,105.367,23.458,108.153,20.075,108.153z M34.651,101.089
				c-0.597-7.76-6.965-13.879-14.576-13.879S6.096,93.329,5.599,101.089c-0.249,3.482,0.846,7.014,3.035,9.949l10.447,14.924
				c0.249,0.348,0.597,0.547,1.045,0.547c0.448,0,0.796-0.199,1.045-0.547l10.397-14.924
				C33.756,108.054,34.85,104.522,34.651,101.089z"/>
		</defs>
		<clipPath id="SVGID_2_">
			<use xlink:href="#SVGID_1_"  overflow="visible"/>
		</clipPath>
		<g clip-path="url(#SVGID_2_)">
			<defs>
				<rect id="SVGID_3_" x="-424.436" y="-118.79" width="1440" height="700"/>
			</defs>
			<clipPath id="SVGID_4_">
				<use xlink:href="#SVGID_3_"  overflow="visible"/>
			</clipPath>
			<rect x="0.564" y="82.21" clip-path="url(#SVGID_4_)" fill="#DD433F" width="39.11" height="49.3"/>
		</g>
	</g>
</g>
<g>
	
		<rect x="1.898" y="180.413" fill="none" stroke="#DD433F" stroke-width="2" stroke-miterlimit="10" width="14.414" height="14.414"/>
	<circle fill="none" stroke="#DD433F" stroke-width="2" stroke-miterlimit="10" cx="19.908" cy="198.218" r="11.837"/>
	<polygon fill="none" stroke="#DD433F" stroke-width="2" stroke-miterlimit="10" points="38.34,201.218 29.906,215.827 
		21.471,201.218 	"/>
</g>
<g>
	<g>
		<defs>
			<path id="SVGID_5_" d="M34.733,272.332c-0.533,2.767-1.206,5.585-6.255,9.844c-9.779,8.247-6.365,13.984-17.309,21.522
				c2.927-0.661,6.433-0.723,9.428-0.614c5.393,0.166,6.097-3.701,6.125-3.867l0.129-0.774l0.782-0.059
				c6.728-0.507,6.724-4.812,6.72-4.996l-0.007-0.354l0.219-0.281c2.233-2.856,2.556-5.706,0.963-8.467l-0.43-0.746l0.673-0.537
				c0.053-0.042,0.104-0.085,0.153-0.129c0.189-0.147,3.729-2.542,0.005-8.14C35.302,273.793,34.935,272.995,34.733,272.332z
				 M34.855,269.72c0.388,1.847,8.509,9.423,2.786,14.291c1.497,3.16,1.042,6.577-1.314,9.731c-0.146,1.351-1.139,5.786-7.852,6.571
				c-0.563,1.566-2.435,4.963-7.95,4.77c-4.413-0.158-8.632-0.412-12.317,0.773c-3.765,3.22-6.203,3.186-6.203,3.186
				c-1.95-1.162-1.357-2.086-1.357-2.086c2.269,0.746,5.064-0.819,7.782-3.233c1.566-2.59,0.871-4.189-0.71-10.052
				c-1.649-6.114,2.968-8.023,2.968-8.023c-1.18-7.679,4.131-8.804,4.131-8.804c3.144-3.889,6.523-3.777,8.379-3.368
				c1.495-2.872,4.791-3.177,7.632-3.006c2.913,0.174,3.733-0.387,3.951-0.638c0.043-0.077,0.074-0.114,0.074-0.114c0,0,0,0,0,0
				S34.854,269.719,34.855,269.72z"/>
		</defs>
		<clipPath id="SVGID_6_">
			<use xlink:href="#SVGID_5_"  overflow="visible"/>
		</clipPath>
		<g clip-path="url(#SVGID_6_)">
			<defs>
				<rect id="SVGID_7_" x="-424.438" y="-99.282" width="1440" height="700"/>
			</defs>
			<clipPath id="SVGID_8_">
				<use xlink:href="#SVGID_7_"  overflow="visible"/>
			</clipPath>
			<rect x="-4.438" y="264.718" clip-path="url(#SVGID_8_)" fill="#DD433F" width="49.115" height="49.324"/>
		</g>
	</g>
</g>
<g>
	<path fill="none" stroke="#DD433F" stroke-width="2" stroke-miterlimit="10" d="M26.731,380.64c0-3.652-2.96-6.612-6.612-6.612
		c-3.651,0-6.612,2.96-6.612,6.612c0,3.652,2.961,6.612,6.612,6.612C23.771,387.252,26.731,384.292,26.731,380.64z M38.814,380.64
		c0,10.325-8.37,18.695-18.695,18.695c-10.325,0-18.695-8.37-18.695-18.695c0-10.325,8.37-18.695,18.695-18.695
		C30.444,361.945,38.814,370.315,38.814,380.64z"/>
</g>
<g>
	<g>
		<defs>
			<path id="SVGID_9_" d="M9.19,471.213l-2.898-1.973l6.322-0.115c0.895-0.522,1.794-1.033,2.701-1.514
				c0.548-0.29,1.084-0.614,1.616-0.95l2.861-7.834l1.765,4.586c0.552-0.4,1.105-0.792,1.663-1.168l-3.475-9.033l-5.08,13.903
				L0.06,467.381l7.338,4.996C7.99,471.986,8.586,471.597,9.19,471.213"/>
		</defs>
		<clipPath id="SVGID_10_">
			<use xlink:href="#SVGID_9_"  overflow="visible"/>
		</clipPath>
		<g clip-path="url(#SVGID_10_)">
			<defs>
				<rect id="SVGID_11_" x="-904.941" y="327.212" width="1440" height="700"/>
			</defs>
			<clipPath id="SVGID_12_">
				<use xlink:href="#SVGID_11_"  overflow="visible"/>
			</clipPath>
			<rect x="-4.94" y="448.212" clip-path="url(#SVGID_12_)" fill="#DD433F" width="33.16" height="29.165"/>
		</g>
	</g>
	<g>
		<defs>
			<path id="SVGID_13_" d="M40.178,466.653l-6.672,0.121c-0.477,0.352-0.959,0.694-1.491,0.969
				c-0.609,0.316-1.196,0.653-1.728,1.061l3.487-0.063l-8.006,5.622l4.239,11.024l-10.124-6.893l-9.788,6.872l1.245-3.407
				c-0.808,0.475-1.681,0.848-2.546,1.223l-2.707,7.407l13.814-9.699l14.212,9.677l-5.953-15.476L40.178,466.653z"/>
		</defs>
		<clipPath id="SVGID_14_">
			<use xlink:href="#SVGID_13_"  overflow="visible"/>
		</clipPath>
		<g clip-path="url(#SVGID_14_)">
			<defs>
				<rect id="SVGID_15_" x="-904.941" y="327.212" width="1440" height="700"/>
			</defs>
			<clipPath id="SVGID_16_">
				<use xlink:href="#SVGID_15_"  overflow="visible"/>
			</clipPath>
			<rect x="1.087" y="461.653" clip-path="url(#SVGID_16_)" fill="#DD433F" width="44.091" height="33.936"/>
		</g>
	</g>
	<g>
		<defs>
			<path id="SVGID_17_" d="M39.068,457.172c-1.726-2.594-5.493-3.135-8.397-1.204l-3.622,2.409h-0.001l-4.305,2.863l0.001,0.001
				L1.058,475.663c-0.842,0.56-1.086,1.679-0.543,2.495l4.294,6.456c0.543,0.816,1.669,1.024,2.511,0.464l21.519-14.312l4.395-2.924
				l3.699-2.46C39.837,463.451,40.794,459.768,39.068,457.172z M26.867,460.668c0.288,0.286,0.681,0.69,1.12,1.183l0.266,0.299
				l0.399,0.004c1.44,0.016,2.336,1.36,1.798,2.688l-0.149,0.369l0.172,0.359c0.253,0.529,0.466,1.035,0.637,1.513l-1.479,0.983
				c-0.147-0.3-0.33-0.657-0.547-1.058l-0.29-0.534l-0.605,0.067c-0.841,0.095-1.583-0.21-1.985-0.813
				c-0.405-0.61-0.394-1.418,0.029-2.161l0.299-0.525l-0.75-0.975c-0.112-0.149-0.225-0.299-0.341-0.45L26.867,460.668z
				 M37.563,458.173c1.175,1.766,0.443,4.325-1.631,5.705l-3.281,2.181c-0.118-0.304-0.244-0.611-0.389-0.929
				c0.33-1.105,0.181-2.233-0.427-3.147c-0.61-0.917-1.597-1.491-2.75-1.612c-0.252-0.276-0.481-0.515-0.684-0.723l3.271-2.175
				C33.746,456.093,36.388,456.407,37.563,458.173z M2.059,477.168l21.862-14.54c0.137,0.177,0.285,0.35,0.416,0.523l0.059,0.078
				c-0.472,1.191-0.369,2.488,0.304,3.499c0.662,0.997,1.797,1.591,3.056,1.634c0.145,0.279,0.257,0.509,0.355,0.714L6.29,483.578
				L2.059,477.168z"/>
		</defs>
		<clipPath id="SVGID_18_">
			<use xlink:href="#SVGID_17_"  overflow="visible"/>
		</clipPath>
		<g clip-path="url(#SVGID_18_)">
			<defs>
				<rect id="SVGID_19_" x="-904.941" y="327.212" width="1440" height="700"/>
			</defs>
			<clipPath id="SVGID_20_">
				<use xlink:href="#SVGID_19_"  overflow="visible"/>
			</clipPath>
			<rect x="-4.775" y="449.811" clip-path="url(#SVGID_20_)" fill="#DD433F" width="49.701" height="40.582"/>
		</g>
	</g>
</g>
<g>
	<g>
		<defs>
			<polygon id="SVGID_21_" points="2.119,545.161 2.119,581.161 12.019,581.161 12.019,579.361 3.919,579.361 3.919,546.961 
				12.019,546.961 12.019,545.161 			"/>
		</defs>
		<clipPath id="SVGID_22_">
			<use xlink:href="#SVGID_21_"  overflow="visible"/>
		</clipPath>
		<g clip-path="url(#SVGID_22_)">
			<defs>
				<rect id="SVGID_23_" x="-905.881" y="337.16" width="1440" height="700"/>
			</defs>
			<clipPath id="SVGID_24_">
				<use xlink:href="#SVGID_23_"  overflow="visible"/>
			</clipPath>
			<rect x="-2.881" y="540.161" clip-path="url(#SVGID_24_)" fill="#DD433F" width="19.9" height="46"/>
		</g>
	</g>
	<g>
		<defs>
			<path id="SVGID_25_" d="M10.112,567.096c0.031-0.052,0.068-0.093,0.107-0.125V553.26h5.4v-0.9h-6.3v15.864
				C9.622,567.865,9.868,567.511,10.112,567.096"/>
		</defs>
		<clipPath id="SVGID_26_">
			<use xlink:href="#SVGID_25_"  overflow="visible"/>
		</clipPath>
		<g clip-path="url(#SVGID_26_)">
			<defs>
				<rect id="SVGID_27_" x="-905.881" y="337.16" width="1440" height="700"/>
			</defs>
			<clipPath id="SVGID_28_">
				<use xlink:href="#SVGID_27_"  overflow="visible"/>
			</clipPath>
			<rect x="4.319" y="547.36" clip-path="url(#SVGID_28_)" fill="#DD433F" width="16.3" height="25.864"/>
		</g>
	</g>
	<g>
		<defs>
			<path id="SVGID_29_" d="M30.019,558.993v14.068h-5.4v0.9h6.3v-15.787C30.633,558.459,30.33,558.73,30.019,558.993"/>
		</defs>
		<clipPath id="SVGID_30_">
			<use xlink:href="#SVGID_29_"  overflow="visible"/>
		</clipPath>
		<g clip-path="url(#SVGID_30_)">
			<defs>
				<rect id="SVGID_31_" x="-905.881" y="337.16" width="1440" height="700"/>
			</defs>
			<clipPath id="SVGID_32_">
				<use xlink:href="#SVGID_31_"  overflow="visible"/>
			</clipPath>
			<rect x="19.619" y="553.174" clip-path="url(#SVGID_32_)" fill="#DD433F" width="16.3" height="25.787"/>
		</g>
	</g>
	<g>
		<defs>
			<polygon id="SVGID_33_" points="28.219,581.16 38.119,581.16 38.119,545.16 28.219,545.16 28.219,546.96 36.319,546.96 
				36.319,579.36 28.219,579.36 			"/>
		</defs>
		<clipPath id="SVGID_34_">
			<use xlink:href="#SVGID_33_"  overflow="visible"/>
		</clipPath>
		<g clip-path="url(#SVGID_34_)">
			<defs>
				<rect id="SVGID_35_" x="-905.881" y="337.16" width="1440" height="700"/>
			</defs>
			<clipPath id="SVGID_36_">
				<use xlink:href="#SVGID_35_"  overflow="visible"/>
			</clipPath>
			<rect x="23.219" y="540.16" clip-path="url(#SVGID_36_)" fill="#DD433F" width="19.9" height="46"/>
		</g>
	</g>
	<g>
		<defs>
			<path id="SVGID_37_" d="M34.353,556.033l-2.813,2.839l-3.344,3.374l-16.372,16.522c-0.641,0.646-1.671,0.668-2.298,0.047
				l-4.956-4.911c-0.626-0.621-0.615-1.651,0.026-2.298l16.498-16.65l-0.001-0.001l3.275-3.305l0.001,0.001l2.757-2.782
				c2.209-2.229,5.628-2.436,7.619-0.462C36.738,550.383,36.562,553.803,34.353,556.033z M23.539,554.799
				c0.13,0.112,0.257,0.224,0.382,0.335l0.838,0.723l-0.168,0.518c-0.238,0.732-0.101,1.446,0.367,1.91
				c0.463,0.459,1.173,0.593,1.897,0.357l0.52-0.169l0.353,0.419c0.265,0.314,0.491,0.595,0.674,0.833l1.125-1.134
				c-0.237-0.391-0.517-0.798-0.835-1.219l-0.217-0.285l0.065-0.352c0.232-1.268-0.801-2.291-2.073-2.044l-0.354,0.069l-0.289-0.215
				c-0.476-0.356-0.895-0.64-1.201-0.84L23.539,554.799z M28.28,550.015l-2.489,2.512c0.217,0.146,0.463,0.315,0.734,0.513
				c1.038-0.103,2.012,0.224,2.716,0.922c0.702,0.696,1.039,1.663,0.949,2.697c0.184,0.253,0.351,0.501,0.51,0.747l2.497-2.517
				c1.579-1.593,1.759-3.982,0.403-5.325C32.244,548.219,29.858,548.423,28.28,550.015z M10.643,577.634l16.603-16.745
				c-0.123-0.163-0.264-0.346-0.442-0.565c-1.118,0.192-2.226-0.127-2.991-0.885c-0.778-0.77-1.102-1.895-0.904-3.029l-0.066-0.058
				c-0.147-0.129-0.309-0.255-0.462-0.385L5.75,572.75L10.643,577.634z"/>
		</defs>
		<clipPath id="SVGID_38_">
			<use xlink:href="#SVGID_37_"  overflow="visible"/>
		</clipPath>
		<g clip-path="url(#SVGID_38_)">
			<defs>
				<rect id="SVGID_39_" x="-905.881" y="337.16" width="1440" height="700"/>
			</defs>
			<clipPath id="SVGID_40_">
				<use xlink:href="#SVGID_39_"  overflow="visible"/>
			</clipPath>
			<rect x="-0.893" y="542.053" clip-path="url(#SVGID_40_)" fill="#DD433F" width="42.025" height="42.215"/>
		</g>
	</g>
</g>
<g>
	<g>
		<defs>
			<path id="SVGID_41_" d="M33.049,656.542h-0.002c1.197,0,2.161,0.963,2.161,2.153v6.622c0,3.55-2.89,6.433-6.435,6.433H9.197
				c-3.55,0-6.433-2.885-6.433-6.433V645.74c0-3.542,2.885-6.435,6.433-6.476h6.353c1.19,0,2.158,0.966,2.158,2.158
				c0,1.188-0.97,2.162-2.158,2.162H9.197c-1.197,0-2.158,0.959-2.158,2.154v19.579c0,1.193,0.961,2.158,2.158,2.158h19.536
				c1.197,0,2.158-0.966,2.158-2.158v-6.622C30.891,657.503,31.858,656.542,33.049,656.542z M17.097,652.149h-0.002l14.213-13.988
				c1.388-1.427,3.664-1.427,5.093,0c1.431,1.381,1.431,3.659,0,5.086l-14.256,13.988c-0.304,0.307-0.695,0.54-1.079,0.734
				l-5.824,2.581c-1.034,0.463-1.924-0.425-1.501-1.506l2.624-5.817C16.52,652.843,16.788,652.458,17.097,652.149z"/>
		</defs>
		<clipPath id="SVGID_42_">
			<use xlink:href="#SVGID_41_"  overflow="visible"/>
		</clipPath>
		<g clip-path="url(#SVGID_42_)">
			<defs>
				<rect id="SVGID_43_" x="-905.236" y="267.091" width="1440" height="700"/>
			</defs>
			<clipPath id="SVGID_44_">
				<use xlink:href="#SVGID_43_"  overflow="visible"/>
			</clipPath>
			<rect x="-2.236" y="632.091" clip-path="url(#SVGID_44_)" fill="#DD433F" width="44.71" height="44.659"/>
		</g>
	</g>
</g>
<g>
	<g>
		<defs>
			<path id="SVGID_45_" d="M24.817,755.79h-9.21v-2.092h1.445c0.881,0,1.258-0.349,1.258-1.268v-8.116
				c0-0.919-0.377-1.268-1.258-1.268h-1.445v-2.093h6.413v11.477c0,0.919,0.377,1.268,1.257,1.268h1.54V755.79z M19.755,734.389
				c1.226,0,2.264,1.015,2.264,2.283c0,1.268-1.038,2.283-2.264,2.283c-1.225,0-2.263-1.015-2.263-2.283
				C17.493,735.404,18.53,734.389,19.755,734.389z M20.119,728.046c-9.657,0-17.485,7.895-17.485,17.635
				c0,9.74,7.828,17.635,17.485,17.635c9.657,0,17.485-7.896,17.485-17.635C37.604,735.941,29.776,728.046,20.119,728.046z"/>
		</defs>
		<clipPath id="SVGID_46_">
			<use xlink:href="#SVGID_45_"  overflow="visible"/>
		</clipPath>
		<g clip-path="url(#SVGID_46_)">
			<defs>
				<rect id="SVGID_47_" x="-905.366" y="277.046" width="1440" height="700"/>
			</defs>
			<clipPath id="SVGID_48_">
				<use xlink:href="#SVGID_47_"  overflow="visible"/>
			</clipPath>
			<rect x="-2.366" y="723.046" clip-path="url(#SVGID_48_)" fill="#DD433F" width="44.97" height="45.27"/>
		</g>
	</g>
</g>
<g>
	<defs>
		<path id="SVGID_49_" d="M24.361,836.232C24.36,836.231,24.36,836.231,24.361,836.232l-7.068-7.068
			c-0.387-0.387-1.026-0.392-1.416-0.002c-0.393,0.393-0.39,1.024,0.002,1.416l6.362,6.362l-6.362,6.362
			c-0.387,0.387-0.392,1.026-0.002,1.416c0.393,0.393,1.024,0.39,1.416-0.002l7.068-7.068c0,0,0.001-0.001,0.001-0.001
			c0,0,0.001-0.001,0.001-0.001c0.196-0.196,0.294-0.452,0.293-0.708C24.653,836.684,24.557,836.427,24.361,836.232
			C24.361,836.232,24.361,836.232,24.361,836.232z"/>
	</defs>
	<clipPath id="SVGID_50_">
		<use xlink:href="#SVGID_49_"  overflow="visible"/>
	</clipPath>
	<g clip-path="url(#SVGID_50_)">
		<defs>
			<rect id="SVGID_51_" x="-809.417" y="367.939" width="1440" height="700"/>
		</defs>
		<clipPath id="SVGID_52_">
			<use xlink:href="#SVGID_51_"  overflow="visible"/>
		</clipPath>
		
			<rect x="5.584" y="825.94" transform="matrix(-0.7071 -0.7071 0.7071 -0.7071 -563.4964 1440.4707)" clip-path="url(#SVGID_52_)" fill="#969696" width="22" height="22"/>
	</g>
</g>
</svg>
